<?xml version="1.0" standalone="no"?>
<!DOCTYPE svg PUBLIC "-//W3C//DTD SVG 20010904//EN"
 "http://www.w3.org/TR/2001/REC-SVG-20010904/DTD/svg10.dtd">
<svg version="1.0" xmlns="http://www.w3.org/2000/svg"
 width="1080.000000pt" height="1080.000000pt" viewBox="0 0 1080.000000 1080.000000"
 preserveAspectRatio="xMidYMid meet">
<metadata>
Created by potrace 1.14, written by Peter Selinger 2001-2017
</metadata>
<g transform="translate(0.000000,1080.000000) scale(0.100000,-0.100000)"
fill="#000000" stroke="none">
<path d="M4530 8028 c-5 -13 -9 -17 -9 -9 -1 8 -4 11 -8 8 -3 -4 -12 -2 -20 5
-11 9 -12 7 -6 -8 6 -17 5 -18 -12 -4 -10 8 -16 10 -12 4 4 -7 -8 -11 -35 -12
-23 -1 -45 -8 -50 -15 -6 -9 -8 -8 -8 3 0 10 -3 11 -8 4 -4 -6 -15 -10 -24 -8
-10 1 -18 -3 -18 -9 0 -7 -5 -5 -10 3 -6 10 -10 11 -10 3 0 -8 -11 -11 -30 -9
-24 3 -28 1 -20 -10 9 -10 7 -11 -9 -7 -12 3 -29 -1 -38 -8 -14 -12 -16 -12
-8 0 6 11 5 12 -6 5 -14 -9 -34 -14 -56 -16 -7 -1 -13 -5 -13 -10 0 -4 -11 -8
-25 -8 -14 0 -25 -6 -25 -12 0 -9 -3 -8 -10 2 -8 12 -10 12 -15 -2 -4 -10 -14
-14 -26 -11 -12 3 -19 0 -19 -8 0 -11 -2 -11 -10 1 -8 13 -10 13 -10 -2 0 -11
-6 -15 -20 -11 -12 3 -20 0 -20 -6 0 -7 -4 -9 -10 -6 -5 3 -10 1 -10 -4 0 -6
-5 -11 -11 -11 -5 0 -7 6 -3 13 4 6 -2 4 -13 -6 -12 -10 -27 -19 -35 -21 -7
-1 -19 -5 -25 -9 -7 -5 -18 -5 -23 -2 -6 4 -9 1 -8 -7 2 -8 -6 -13 -19 -12
-13 1 -21 -2 -18 -5 2 -4 -5 -13 -17 -20 -14 -9 -18 -9 -13 -1 6 9 2 9 -12 1
-11 -6 -24 -7 -29 -3 -5 4 -2 -1 5 -11 12 -15 12 -17 -4 -11 -9 4 -20 3 -24
-2 -11 -16 -52 -35 -62 -29 -5 4 -8 1 -7 -7 2 -7 -3 -12 -9 -11 -7 2 -13 -2
-13 -8 0 -5 -5 -7 -11 -4 -6 4 -17 -1 -24 -11 -8 -11 -15 -15 -15 -11 0 5 -7
2 -15 -5 -34 -31 -43 -36 -49 -31 -3 4 -6 1 -6 -6 0 -7 -4 -10 -9 -7 -5 3 -12
-1 -15 -10 -3 -9 -13 -14 -21 -10 -8 3 -17 0 -21 -6 -5 -7 -2 -8 6 -3 9 6 11
4 6 -4 -5 -7 -14 -10 -22 -7 -8 3 -13 2 -11 -2 1 -4 -2 -8 -7 -9 -5 0 -13 -8
-18 -17 -5 -9 -14 -13 -20 -10 -6 4 -8 3 -5 -3 9 -15 66 -24 85 -14 18 10 62
-6 62 -23 0 -6 5 -4 10 4 5 8 10 10 10 4 0 -6 12 -16 26 -22 20 -10 24 -10 18
0 -6 10 -5 11 8 1 8 -7 26 -14 40 -15 21 -2 61 -28 42 -28 -3 0 -1 -7 6 -15
15 -18 34 -20 24 -2 -6 10 -4 10 7 0 16 -16 33 -17 23 -2 -3 6 5 3 20 -6 18
-12 26 -14 26 -5 0 10 3 10 15 0 12 -10 15 -10 15 0 0 9 7 7 20 -5 17 -15 20
-16 15 -3 -4 9 -1 19 6 24 8 5 10 3 4 -6 -5 -9 -4 -11 4 -6 8 6 9 12 2 20 -6
7 -7 17 -3 21 4 5 2 5 -5 2 -6 -4 -13 -2 -15 4 -2 6 -24 12 -49 13 -25 2 -52
7 -60 11 -12 7 -12 6 -1 -7 11 -14 10 -16 -7 -11 -21 5 -28 27 -12 37 5 4 8
12 7 19 -4 25 -17 35 -42 31 -14 -3 -23 -1 -21 3 3 4 -5 8 -18 8 -18 0 -21 -3
-13 -13 8 -10 6 -11 -10 -5 -25 10 -25 21 1 48 11 11 16 14 12 6 -5 -9 1 -7
19 4 14 9 23 21 20 26 -3 5 -2 9 3 8 19 -3 34 2 29 10 -3 5 1 11 9 15 8 3 15
0 15 -7 0 -7 3 -8 8 -2 10 14 32 17 32 4 0 -5 5 -7 10 -4 6 4 7 12 3 18 -3 7
4 3 17 -8 13 -11 20 -15 17 -9 -4 7 0 14 8 18 8 3 14 2 14 -2 -3 -20 2 -25 12
-12 8 11 12 12 16 3 2 -7 11 -13 19 -13 7 0 16 -11 20 -25 3 -14 10 -25 15
-25 5 0 9 -7 9 -15 0 -15 15 -18 73 -17 15 0 25 -3 22 -8 -13 -21 63 18 87 45
27 30 27 30 43 10 9 -11 13 -13 9 -5 -4 8 -3 11 1 7 11 -9 16 -37 7 -35 -15 5
-52 -24 -46 -34 5 -8 1 -9 -10 -5 -9 4 -14 3 -11 -2 9 -16 -17 -26 -72 -27
-58 -1 -90 -18 -73 -39 6 -7 10 -17 9 -21 -1 -5 -1 -18 0 -29 1 -17 3 -18 11
-5 9 13 14 7 11 -12 0 -5 4 -8 9 -8 6 0 10 5 10 11 0 5 5 7 10 4 6 -3 10 0 10
7 0 9 3 10 8 2 17 -26 122 1 106 28 -3 4 2 5 10 2 9 -3 16 -2 16 3 0 5 9 9 20
10 13 1 18 -2 13 -10 -4 -7 1 -6 11 2 15 13 19 13 27 0 7 -11 9 -11 9 4 0 9 7
17 16 17 8 0 12 5 9 10 -4 6 -1 17 5 25 10 11 10 15 1 15 -7 0 -9 5 -5 13 6 9
5 9 -8 -1 -12 -10 -18 -9 -28 3 -7 8 -16 12 -21 9 -5 -3 -6 2 -3 10 3 9 10 16
16 16 5 0 6 5 3 10 -3 6 -1 10 4 10 6 0 11 8 11 18 0 9 4 13 8 7 9 -13 52 -15
52 -3 0 5 6 6 13 1 19 -12 37 -12 37 -1 0 5 7 2 16 -6 14 -14 18 -14 42 2 14
9 23 11 19 5 -6 -9 -2 -13 10 -13 15 0 15 -2 3 -9 -8 -6 -18 -7 -22 -5 -5 3
-7 2 -6 -3 2 -4 -1 -8 -5 -8 -5 0 -14 -10 -20 -22 -7 -12 -16 -22 -22 -21 -16
0 -5 -65 13 -79 15 -12 15 -12 -3 -7 -16 5 -17 4 -6 -4 10 -7 21 -7 33 -1 12
6 18 6 18 0 0 -6 7 -8 16 -4 9 3 20 0 25 -8 7 -12 9 -12 10 1 0 8 2 27 4 43 2
16 -1 27 -8 27 -7 0 -6 4 3 10 13 8 13 10 0 10 -10 0 -11 3 -3 11 6 6 9 18 6
25 -4 10 0 12 13 7 13 -5 15 -3 9 8 -4 8 -4 11 0 6 5 -4 19 0 32 8 13 9 28 13
33 10 6 -3 10 -2 10 3 0 6 7 13 16 16 12 5 15 2 10 -9 -5 -14 -4 -14 16 0 27
18 42 20 32 3 -6 -9 -3 -9 9 0 9 8 20 11 25 9 4 -3 14 -2 22 3 9 5 19 5 27 -2
9 -7 13 -7 13 1 0 7 5 9 10 6 6 -4 8 -11 5 -16 -3 -5 0 -6 8 -3 8 3 22 -2 31
-11 9 -10 16 -12 16 -5 0 7 6 5 16 -4 14 -15 28 -20 47 -17 4 0 7 -4 7 -11 0
-6 3 -8 7 -5 3 4 12 -1 20 -11 9 -11 12 -11 7 -2 -5 12 -4 12 6 3 7 -6 20 -9
29 -6 9 4 13 3 9 -2 -4 -4 3 -16 15 -26 16 -13 18 -18 7 -19 -13 0 -13 -1 0
-10 11 -7 11 -10 2 -10 -9 0 -10 -5 -3 -17 5 -10 11 -22 13 -28 1 -5 6 -9 11
-7 4 1 7 -4 7 -10 0 -9 4 -8 10 2 6 10 10 11 10 3 0 -7 7 -13 17 -13 15 0 15
-1 0 -18 -10 -10 -17 -26 -17 -35 0 -10 -5 -14 -15 -11 -8 4 -15 1 -15 -6 0
-10 -3 -10 -15 0 -12 10 -15 10 -15 -1 0 -11 -2 -11 -10 1 -9 13 -10 13 -10 0
0 -13 -2 -13 -9 -1 -8 12 -12 11 -27 -4 -10 -10 -19 -23 -20 -29 0 -6 -2 -17
-2 -24 -1 -7 -6 -10 -12 -7 -5 3 -10 -1 -10 -11 0 -14 -3 -14 -15 -4 -9 7 -18
10 -22 7 -3 -4 -11 -3 -17 2 -21 16 -47 22 -40 8 5 -9 4 -9 -6 0 -7 6 -19 9
-28 6 -11 -5 -13 -3 -7 7 5 9 4 11 -4 6 -6 -4 -19 -2 -28 6 -12 9 -15 9 -9 1
4 -7 2 -13 -3 -13 -6 0 -11 8 -11 18 0 9 -4 13 -8 7 -13 -18 -30 -15 -25 5 3
11 9 18 13 15 5 -3 11 -1 15 5 4 6 11 8 16 5 5 -4 9 -1 9 5 0 7 7 9 16 6 10
-4 13 -2 8 6 -5 8 -2 9 9 5 10 -4 16 -2 14 6 -1 7 8 12 20 11 14 -1 20 3 16
12 -3 9 2 12 16 9 12 -2 19 0 16 5 -3 4 1 11 7 13 10 4 10 6 0 6 -15 1 -48 31
-35 31 4 0 0 5 -10 11 -9 5 -22 7 -29 3 -7 -4 -8 -3 -4 4 4 7 1 12 -9 12 -10
0 -13 -5 -9 -12 5 -7 3 -8 -6 -3 -18 11 -60 13 -66 3 -3 -4 -11 -5 -19 -1 -9
3 -15 -1 -15 -8 0 -11 -3 -11 -10 1 -6 9 -10 11 -10 3 0 -7 -7 -10 -16 -6 -17
6 -57 -30 -46 -43 4 -4 -1 -4 -10 -1 -13 4 -15 2 -11 -10 4 -10 2 -14 -5 -9
-6 3 -13 2 -17 -3 -3 -6 -13 -7 -22 -4 -9 4 -14 2 -10 -3 3 -6 -6 -9 -23 -8
-28 2 -33 -8 -17 -34 5 -7 13 -10 18 -7 14 10 11 -5 -6 -22 -9 -8 -21 -13 -28
-10 -7 2 -18 -2 -25 -9 -7 -8 -9 -14 -5 -14 18 0 -24 -20 -43 -20 -16 0 -20 6
-18 30 1 17 -2 30 -8 30 -5 0 -7 4 -3 9 3 6 -4 7 -17 4 -13 -3 -35 -6 -50 -7
-14 0 -26 -5 -25 -11 1 -5 -8 -9 -21 -9 -12 1 -20 -1 -18 -4 8 -8 -26 -31 -46
-32 -9 0 -20 -5 -24 -12 -5 -7 -3 -8 6 -3 8 5 11 4 6 -3 -4 -6 -13 -9 -21 -5
-8 3 -15 0 -15 -6 0 -6 -7 -11 -15 -11 -8 0 -15 -5 -15 -12 0 -6 -3 -8 -7 -5
-3 4 -18 -3 -31 -15 -14 -13 -22 -18 -19 -11 5 7 0 9 -14 6 -16 -4 -17 -8 -7
-14 8 -6 9 -9 2 -9 -16 0 -26 -30 -15 -44 4 -6 7 -19 6 -28 -2 -10 1 -18 5
-18 5 0 12 -9 15 -20 4 -11 11 -18 16 -15 5 4 12 -1 15 -9 3 -9 10 -13 15 -10
5 3 9 1 9 -5 0 -6 7 -7 17 -4 12 5 14 3 8 -8 -6 -11 -5 -12 6 -1 16 15 33 16
24 2 -8 -13 18 -8 27 5 5 6 8 6 8 -2 0 -6 9 -10 19 -8 15 3 18 -1 14 -12 -4
-9 -2 -14 3 -10 13 8 12 -76 -1 -86 -7 -6 -6 -10 3 -14 6 -2 10 -9 6 -14 -3
-5 0 -9 6 -9 6 0 8 -5 4 -12 -6 -10 -5 -10 8 -1 8 7 18 10 21 6 4 -3 7 -1 7 5
0 6 8 9 19 7 14 -3 18 1 14 16 -4 14 0 19 13 19 16 0 16 2 4 10 -12 8 -12 10
3 16 9 3 14 10 11 16 -8 13 37 50 53 43 8 -2 11 0 8 5 -5 8 31 15 58 11 4 0 7
4 7 9 0 6 7 10 16 10 8 0 12 5 9 10 -3 6 -1 10 6 10 8 0 8 4 -1 15 -10 12 -10
15 1 15 9 0 10 3 4 8 -5 4 -10 16 -10 27 0 11 5 23 10 27 7 5 6 8 0 8 -6 0
-11 9 -11 20 0 11 5 20 11 20 7 0 7 3 -1 8 -6 4 -4 13 8 25 10 9 18 14 18 10
0 -3 8 3 18 15 19 21 36 23 61 8 10 -7 12 -5 6 3 -4 7 5 5 21 -5 15 -11 25
-13 21 -7 -6 9 -3 11 7 7 9 -3 16 -11 16 -18 0 -6 5 -4 10 4 8 12 10 12 10 1
0 -8 3 -11 7 -8 3 4 13 1 21 -6 13 -9 14 -9 8 0 -5 9 -2 11 7 7 8 -3 17 -14
20 -25 3 -10 2 -17 -3 -14 -12 7 -19 -20 -10 -36 5 -7 5 -18 -1 -25 -7 -9 -4
-16 10 -24 16 -8 21 -8 21 2 0 6 7 3 15 -8 13 -16 14 -16 9 -1 -5 13 -2 16 10
11 9 -3 16 -1 16 6 0 6 5 8 10 5 6 -3 10 -1 10 6 0 7 3 9 7 6 3 -4 18 3 31 15
14 13 22 18 19 11 -5 -7 0 -9 12 -6 17 4 19 0 17 -29 -1 -18 2 -39 7 -45 6 -8
5 -13 -2 -13 -7 0 -8 -8 -1 -24 5 -13 6 -27 2 -32 -4 -4 -2 -4 4 -1 7 4 14 0
18 -8 3 -8 15 -15 26 -15 12 0 18 -4 15 -10 -3 -5 3 -10 13 -10 11 0 22 -9 25
-20 3 -11 0 -20 -6 -20 -7 0 -5 -5 3 -10 8 -5 10 -10 3 -10 -6 0 -9 -8 -6 -19
6 -25 -10 -35 -75 -43 -7 -1 -10 -8 -8 -15 3 -8 1 -11 -4 -8 -18 11 -10 -7 11
-26 12 -10 26 -16 30 -13 5 3 9 -2 9 -10 0 -10 6 -13 15 -9 22 8 68 -47 53
-64 -5 -7 -14 -11 -18 -8 -5 3 -10 0 -12 -6 -3 -8 -10 -6 -21 5 -12 13 -17 14
-17 4 -1 -9 -4 -7 -10 4 -6 10 -18 14 -30 11 -11 -3 -20 -1 -20 5 0 5 -8 9
-17 8 -10 0 -18 2 -18 6 0 4 -9 14 -20 23 -11 9 -14 14 -7 10 11 -5 16 6 13
27 0 4 7 4 16 1 13 -5 15 -2 10 11 -4 10 -3 15 3 11 6 -4 8 3 6 17 -3 13 -5
27 -5 32 -1 5 -8 3 -16 -4 -12 -10 -15 -10 -15 1 -1 8 -10 3 -23 -12 -24 -29
-76 -52 -62 -28 5 8 -1 6 -12 -4 -11 -9 -23 -14 -27 -10 -4 5 -13 8 -19 8 -7
0 -12 5 -13 10 0 6 -4 18 -9 28 -5 13 -11 15 -20 7 -9 -8 -15 -8 -20 0 -3 5
-11 10 -16 10 -6 0 -7 -4 -4 -10 3 -6 -1 -7 -9 -4 -9 3 -13 11 -10 18 3 6 0 4
-8 -5 -7 -9 -20 -18 -28 -22 -11 -4 -12 -6 -1 -6 11 -1 11 -4 1 -16 -9 -11 -9
-15 -1 -15 7 0 9 -4 6 -10 -3 -5 -1 -10 5 -10 6 0 18 -7 27 -15 10 -11 19 -13
27 -6 8 7 12 4 13 -10 1 -11 -2 -17 -7 -14 -4 3 -10 -1 -13 -7 -3 -10 -12 -9
-35 3 -23 13 -33 14 -42 5 -10 -8 -11 -8 -6 2 16 28 -6 10 -24 -20 -11 -18
-20 -30 -20 -26 0 14 -58 -49 -65 -71 -3 -12 -10 -19 -15 -16 -5 3 -15 -1 -23
-9 -8 -8 -17 -12 -21 -9 -3 4 -6 1 -6 -6 0 -7 -4 -9 -10 -6 -5 3 -10 1 -10 -5
0 -6 -4 -9 -9 -6 -5 3 -12 -1 -15 -10 -3 -8 -10 -12 -16 -9 -5 3 -10 1 -10 -6
0 -7 -3 -9 -6 -6 -4 4 -22 -9 -40 -28 -18 -19 -39 -35 -46 -35 -10 0 -10 -2 1
-9 11 -7 9 -10 -7 -15 -12 -4 -24 -16 -27 -27 -4 -10 -11 -17 -16 -14 -8 5
-13 -7 -11 -26 1 -4 -6 -6 -16 -5 -9 0 -16 -5 -14 -11 1 -7 -2 -13 -7 -13 -4
0 -7 -14 -5 -31 3 -21 0 -28 -8 -23 -8 5 -9 2 -5 -10 5 -14 3 -17 -8 -12 -8 3
-14 0 -12 -6 1 -7 -5 -12 -13 -13 -8 -1 -14 -6 -13 -13 2 -7 -4 -9 -14 -5 -9
4 -14 2 -10 -3 3 -5 -7 -15 -22 -22 -15 -7 -37 -21 -48 -31 -12 -11 -22 -18
-24 -17 -2 2 -13 -6 -24 -17 -12 -11 -14 -17 -5 -13 8 4 6 0 -4 -8 -11 -9 -24
-16 -29 -16 -4 0 -5 -4 -2 -10 3 -5 2 -10 -2 -10 -10 0 -10 -41 1 -58 4 -7 2
-12 -4 -12 -8 0 -9 -7 -5 -17 4 -10 8 -22 9 -28 1 -5 6 -16 10 -24 7 -11 5
-13 -7 -8 -9 3 -18 1 -21 -6 -3 -9 -5 -8 -5 1 -1 7 -5 10 -11 7 -5 -3 -10 -1
-10 4 0 6 -8 11 -19 11 -22 0 -45 25 -37 39 4 5 2 12 -4 16 -7 4 -7 12 0 25 8
14 5 21 -13 32 -24 17 -51 13 -40 -5 3 -7 -4 -3 -17 8 -13 11 -20 15 -16 8 5
-9 -3 -11 -29 -9 -19 2 -38 -1 -42 -7 -4 -6 -11 -4 -18 7 -12 15 -13 15 -19 0
-5 -14 -9 -14 -23 -3 -17 14 -20 14 -40 -2 -7 -7 -14 -6 -19 2 -5 8 -3 9 6 4
8 -5 11 -4 6 3 -4 6 -13 9 -21 6 -8 -4 -12 -11 -8 -17 4 -6 1 -7 -8 -1 -19 11
-40 14 -34 4 4 -7 -31 -23 -47 -21 -5 1 -8 -4 -8 -10 0 -6 -7 -9 -14 -6 -9 4
-18 -2 -22 -15 -5 -16 -8 -18 -15 -7 -7 11 -9 11 -9 1 0 -7 -3 -11 -7 -9 -10
6 -34 -19 -26 -27 4 -3 -1 -6 -11 -6 -9 0 -15 -4 -12 -9 9 -14 -5 -42 -18 -34
-6 3 -8 3 -4 -2 4 -4 3 -14 -3 -22 -6 -7 -8 -13 -5 -13 4 0 0 -7 -8 -16 -9 -8
-14 -20 -11 -25 4 -5 2 -9 -4 -9 -6 0 -8 -7 -4 -16 3 -9 0 -20 -8 -25 -12 -7
-12 -9 0 -9 12 0 11 -3 -2 -12 -15 -12 -14 -17 8 -60 13 -25 21 -48 19 -51 -3
-2 2 -7 11 -11 11 -4 14 -2 10 7 -4 6 -1 5 7 -3 15 -17 40 -20 50 -5 5 6 8 6
8 -1 0 -7 7 -15 16 -18 8 -3 12 -2 9 4 -3 6 -1 10 4 10 6 0 11 -4 11 -8 0 -5
7 -9 14 -9 8 0 14 3 13 6 -1 3 2 7 6 8 5 1 15 10 24 20 9 11 12 12 8 3 -4 -8
1 -6 10 5 9 11 20 20 26 20 5 0 14 6 18 14 5 7 13 11 19 7 5 -3 13 1 16 10 3
8 10 12 16 9 5 -3 10 1 10 9 0 9 7 16 15 16 8 0 18 0 23 0 4 0 7 -8 7 -17 -1
-10 4 -21 10 -26 6 -5 3 -13 -9 -22 -11 -8 -16 -15 -12 -15 5 0 3 -7 -4 -15
-7 -8 -9 -15 -4 -15 5 0 1 -5 -8 -11 -10 -5 -18 -17 -18 -25 0 -10 -5 -12 -12
-8 -10 6 -10 4 0 -8 8 -10 21 -14 34 -10 16 4 19 2 13 -9 -8 -12 -6 -12 8 0
11 8 17 9 17 3 0 -7 7 -9 17 -5 12 5 14 3 8 -8 -7 -12 -6 -12 7 -1 33 26 84
-35 55 -64 -4 -4 -1 -14 6 -22 10 -13 9 -14 -3 -7 -12 6 -13 5 -2 -6 6 -7 12
-17 12 -22 0 -4 -6 -5 -12 -1 -9 5 -9 2 1 -9 11 -14 11 -20 0 -34 -12 -14 -12
-16 1 -11 11 4 15 -2 16 -23 1 -16 -3 -26 -7 -23 -5 3 -6 -2 -3 -11 4 -9 13
-14 20 -11 7 3 16 1 19 -4 3 -5 11 -7 18 -4 8 3 27 -2 43 -11 26 -14 30 -13
42 2 8 11 12 12 12 4 0 -7 6 -11 14 -8 11 4 13 1 9 -11 -6 -14 -4 -15 9 -4 13
10 17 10 21 0 4 -10 6 -10 6 0 1 6 7 12 15 12 8 0 18 5 22 12 5 7 2 8 -7 3 -8
-4 -5 1 6 12 11 11 23 19 28 16 4 -2 7 5 7 17 0 12 4 19 8 16 5 -3 15 6 22 19
7 14 17 25 22 25 5 0 6 6 2 13 -5 7 0 6 11 -3 10 -8 16 -10 12 -3 -11 17 14
21 42 7 20 -10 27 -11 33 -1 6 9 8 9 8 0 0 -8 13 -13 30 -13 17 0 30 -4 30
-10 0 -5 6 -10 14 -10 14 0 31 -27 27 -43 -1 -5 3 -6 8 -3 5 3 12 -1 15 -10 3
-8 10 -12 16 -9 5 3 10 0 10 -7 0 -10 3 -9 9 1 8 13 12 13 27 0 10 -8 15 -9
11 -3 -4 7 3 14 18 16 13 3 22 2 20 -2 -2 -4 8 -7 24 -6 22 1 28 5 25 19 -1
10 1 15 6 12 5 -3 13 2 18 11 8 15 10 15 15 0 4 -9 13 -16 22 -16 8 0 15 -4
15 -10 0 -5 8 -10 18 -10 14 0 15 -2 2 -10 -13 -9 -13 -10 0 -11 8 -1 18 -1
23 0 4 0 7 -2 6 -6 -2 -16 14 -53 22 -53 5 0 9 -5 9 -11 0 -6 7 -17 15 -26 8
-8 13 -19 10 -23 -3 -5 4 -7 15 -5 11 2 20 -1 20 -7 0 -7 5 -6 14 1 10 8 16 9
21 1 3 -6 11 -7 17 -3 25 15 79 9 96 -11 10 -12 11 -16 3 -11 -10 5 -12 4 -7
-3 4 -7 15 -12 24 -12 13 0 14 -2 4 -9 -11 -7 -10 -9 3 -15 9 -3 13 -10 10
-16 -3 -5 -2 -10 3 -10 5 0 12 -9 15 -20 3 -11 1 -18 -4 -14 -11 6 0 -25 15
-45 9 -12 8 -13 -2 -7 -11 6 -13 1 -10 -20 4 -34 20 -54 43 -54 9 0 13 -4 10
-10 -3 -6 1 -7 9 -4 10 4 16 1 16 -7 0 -11 3 -11 10 1 7 11 10 11 10 2 0 -7 5
-10 10 -7 6 3 10 1 10 -5 0 -6 5 -8 10 -5 6 3 10 2 10 -3 0 -6 7 -13 16 -16
14 -5 15 -4 4 9 -11 13 -10 14 4 9 9 -3 16 -11 16 -16 0 -6 6 -8 14 -5 7 3 19
0 26 -6 10 -9 11 -9 5 2 -6 10 -4 12 5 6 16 -10 110 -11 134 -2 9 4 16 1 16
-6 0 -8 4 -6 10 3 5 8 10 10 10 3 0 -6 10 -10 23 -9 18 2 23 -2 23 -18 -1 -12
4 -20 12 -18 8 1 11 -2 8 -7 -4 -5 -2 -12 3 -16 6 -3 7 -13 4 -22 -5 -12 -3
-14 7 -8 8 5 11 4 7 -3 -4 -5 -15 -9 -25 -8 -9 2 -20 -1 -23 -6 -3 -5 -16 -10
-27 -11 -12 -1 -22 -6 -22 -12 0 -5 -5 -3 -10 5 -9 13 -10 13 -10 0 0 -13 -1
-13 -10 0 -8 13 -10 13 -10 -2 0 -12 -5 -15 -17 -11 -11 5 -14 3 -8 -6 6 -10
3 -11 -14 -2 -12 7 -20 8 -19 4 2 -4 -2 -8 -7 -8 -5 0 -9 5 -7 10 1 6 -7 -1
-18 -14 -11 -13 -20 -19 -20 -14 0 5 -7 10 -15 10 -8 0 -11 -5 -8 -10 4 -6 0
-8 -10 -4 -10 3 -17 2 -17 -3 0 -5 -7 -6 -17 -3 -12 5 -14 3 -8 -8 6 -11 5
-11 -5 -2 -9 9 -19 7 -43 -7 -23 -14 -35 -16 -50 -8 -14 7 -17 7 -13 -1 6 -9
-19 -14 -51 -10 -3 0 -10 -7 -15 -16 -7 -12 -13 -13 -23 -5 -9 8 -14 6 -19 -6
-5 -13 -9 -14 -21 -4 -12 10 -15 10 -15 -1 0 -11 -2 -11 -10 1 -7 11 -10 11
-10 2 0 -7 -4 -10 -10 -7 -5 3 -10 0 -10 -7 0 -9 -3 -9 -10 2 -6 9 -10 11 -10
3 0 -7 -6 -10 -14 -7 -7 3 -16 -2 -20 -11 -4 -13 -10 -14 -26 -5 -15 8 -20 8
-20 -2 -1 -8 -7 -5 -17 7 -11 14 -14 15 -10 3 6 -18 -17 -28 -71 -28 -24 0
-31 -4 -26 -12 5 -9 2 -9 -9 1 -13 10 -17 10 -17 1 0 -9 -4 -9 -17 1 -15 12
-16 12 -10 -3 3 -10 2 -18 -3 -18 -6 0 -10 6 -10 13 0 9 -3 8 -9 -2 -6 -9 -10
-10 -16 -2 -5 9 -10 9 -20 1 -15 -12 -46 -20 -87 -22 -15 0 -25 -4 -23 -8 7
-12 -29 -6 -37 5 -5 6 -8 6 -8 -2 0 -6 -8 -12 -17 -12 -10 0 -29 -2 -43 -4
-14 -2 -31 1 -38 6 -9 7 -11 6 -6 -6 6 -16 -10 -18 -33 -4 -6 4 -15 2 -19 -4
-5 -8 -3 -9 7 -4 8 5 11 4 6 0 -4 -5 -18 -9 -31 -10 -17 0 -22 4 -19 15 4 13
4 13 -6 0 -6 -8 -15 -16 -21 -16 -5 -1 -11 -2 -12 -3 -11 -9 -48 -9 -43 -1 3
6 -1 7 -9 4 -11 -4 -16 0 -16 10 0 9 -7 16 -16 16 -8 0 -13 4 -10 9 3 5 -1 11
-9 15 -8 3 -15 12 -15 21 0 8 -7 15 -16 15 -8 0 -13 4 -10 9 3 5 -1 11 -9 15
-8 3 -15 11 -15 18 0 8 -9 20 -20 28 -11 8 -20 18 -20 23 0 4 -11 18 -25 31
-13 13 -22 26 -18 29 3 4 1 7 -5 7 -11 0 -10 12 7 68 5 18 6 30 2 28 -4 -3 -8
1 -8 9 0 8 4 12 9 9 4 -3 8 0 8 5 0 6 -6 11 -12 11 -10 0 -10 2 0 8 7 5 10 16
7 25 -4 8 -2 24 4 35 8 15 8 22 -2 25 -9 4 -9 6 1 6 6 1 12 6 12 12 0 5 -5 7
-12 3 -7 -4 -8 -3 -4 5 4 6 12 9 17 6 5 -4 16 0 24 7 31 28 50 43 55 44 18 3
39 18 44 30 4 10 2 13 -7 8 -6 -4 -3 3 8 16 11 13 14 20 6 15 -11 -6 -13 -4
-8 8 3 9 1 18 -6 21 -9 3 -8 7 2 14 9 7 10 12 2 16 -6 4 -9 12 -6 17 4 5 0 9
-7 9 -10 0 -10 2 1 9 9 6 10 11 2 15 -6 4 -8 13 -5 19 4 7 4 9 -1 5 -4 -4 -15
-2 -23 5 -13 10 -14 9 -7 -3 8 -13 7 -13 -8 -1 -14 11 -17 11 -17 0 0 -11 -2
-11 -10 1 -5 8 -12 11 -15 8 -4 -4 -18 -3 -32 3 -18 6 -22 6 -17 -3 5 -8 2 -9
-12 -3 -10 4 -29 7 -42 6 -13 0 -20 3 -17 9 3 6 1 10 -5 10 -14 0 -59 51 -60
68 0 7 -4 11 -8 8 -13 -8 -44 33 -36 47 4 7 4 9 -1 5 -5 -5 -14 1 -22 12 -8
11 -22 20 -32 20 -11 0 -22 8 -25 17 -6 14 -9 15 -15 4 -6 -10 -10 -9 -15 4
-3 10 -11 13 -18 8 -19 -11 -39 -13 -32 -2 3 5 -5 9 -18 9 -13 0 -30 6 -37 13
-11 10 -13 10 -7 0 4 -7 5 -13 2 -13 -3 0 -10 9 -16 20 -8 15 -8 18 3 15 8 -4
13 2 13 14 0 12 -5 17 -15 13 -8 -3 -12 -1 -8 5 4 6 0 13 -8 17 -8 3 -15 0
-15 -7 0 -7 -7 -3 -15 7 -8 11 -15 15 -15 8 0 -6 -7 -9 -15 -6 -11 4 -13 2
-10 -9 4 -8 -1 -17 -9 -20 -21 -8 -48 2 -40 15 4 6 -2 5 -14 -1 -17 -9 -23 -8
-31 6 -8 13 -10 14 -11 4 0 -11 -3 -12 -11 -4 -6 6 -17 9 -24 7 -7 -3 -16 -1
-20 5 -3 6 -20 11 -36 11 -17 0 -32 6 -35 15 -4 8 -10 13 -14 10 -5 -3 -7 3
-6 12 2 10 -7 25 -18 35 -12 9 -17 17 -12 18 5 0 0 8 -11 18 -21 19 -40 57
-22 47 6 -4 9 1 7 11 -2 12 2 18 10 16 8 -1 11 2 6 9 -3 6 0 15 7 20 11 7 11
9 1 9 -7 0 -10 5 -7 10 3 6 1 10 -5 10 -6 0 -8 5 -5 10 3 6 -1 10 -10 10 -9 0
-13 5 -10 10 3 6 1 10 -4 10 -6 0 -11 7 -11 15 0 8 -4 15 -10 15 -5 0 -10 7
-10 15 0 8 -4 15 -10 15 -5 0 -10 6 -10 14 0 8 -7 17 -16 20 -9 3 -14 12 -11
20 3 8 -2 16 -14 19 -15 4 -19 14 -19 46 0 25 -5 41 -12 41 -9 0 -9 3 0 12 7
7 8 17 1 30 -5 10 -7 18 -3 18 3 0 1 6 -5 13 -6 8 -9 16 -6 19 3 3 -10 4 -29
4 -25 -1 -32 -5 -28 -15 4 -10 1 -12 -7 -6 -7 4 -5 -5 5 -21 11 -15 14 -25 8
-22 -12 8 -11 -16 0 -44 4 -9 5 -21 2 -27 -4 -5 -2 -12 4 -16 6 -4 8 -11 5
-16 -4 -5 1 -9 9 -9 10 0 16 -9 16 -26 0 -14 4 -23 10 -19 9 5 12 -1 9 -21 0
-3 9 -14 21 -24 12 -10 22 -22 23 -27 1 -4 5 -7 10 -5 11 3 9 -16 -3 -23 -7
-4 -7 -12 0 -25 7 -13 7 -21 0 -25 -5 -3 -10 -3 -10 1 0 3 -7 1 -16 -6 -8 -8
-14 -9 -13 -4 4 21 -2 28 -12 14 -8 -11 -12 -12 -16 -2 -2 6 -9 10 -14 6 -5
-3 -9 2 -9 10 0 9 -3 16 -8 16 -4 0 -13 14 -20 30 -8 18 -18 27 -25 23 -7 -3
-9 -3 -5 1 9 11 -12 67 -23 60 -5 -3 -6 3 -2 12 5 13 3 15 -7 9 -8 -5 -11 -3
-8 6 3 8 1 22 -4 32 -7 13 -5 17 9 18 16 0 16 1 -2 9 -11 5 -14 9 -7 9 7 1 10
6 7 12 -11 17 -13 59 -3 59 5 0 6 6 1 12 -4 7 -6 25 -4 40 1 16 -2 28 -9 28
-6 0 -8 6 -4 13 4 6 4 9 -1 5 -4 -4 -14 -3 -22 3 -7 6 -13 8 -13 3 0 -4 -7 1
-16 12 -8 10 -13 13 -9 7 4 -9 1 -11 -9 -7 -9 3 -13 10 -10 15 3 5 -2 9 -11 9
-12 0 -13 4 -6 18 6 11 6 24 -1 36 -8 14 -7 17 1 12 6 -4 11 -3 11 3 0 5 -4
12 -10 16 -5 3 -6 15 0 29 6 17 5 23 -5 23 -8 0 -12 -4 -9 -8 2 -4 0 -10 -6
-14 -5 -3 -10 -15 -10 -26 0 -10 -6 -19 -12 -19 -9 0 -8 -4 2 -10 10 -6 11
-10 3 -10 -7 0 -13 -7 -13 -16 0 -8 -5 -12 -11 -8 -8 4 -8 0 0 -15 9 -16 9
-21 -1 -19 -6 2 -13 -4 -14 -12 0 -8 -2 -23 -2 -33 -1 -10 -6 -15 -12 -12 -5
3 -10 1 -10 -4 0 -6 5 -11 11 -11 5 0 7 -5 4 -10 -4 -6 -10 -8 -14 -6 -4 3 -8
-1 -8 -9 0 -8 5 -15 11 -15 6 0 6 -4 -2 -8 -7 -5 -14 -22 -15 -39 -1 -17 -5
-29 -9 -26 -5 2 -8 -5 -8 -16 0 -11 -4 -23 -10 -26 -5 -3 -10 -12 -10 -18 0
-7 4 -6 10 3 6 9 10 10 10 3 0 -6 -4 -14 -9 -18 -6 -3 -8 -14 -6 -25 2 -12 0
-18 -4 -15 -5 3 -11 -2 -15 -10 -3 -8 -1 -17 5 -21 7 -4 6 -10 0 -18 -6 -7 -8
-16 -4 -19 3 -4 2 -7 -4 -7 -5 0 -9 -10 -8 -22 1 -13 -2 -31 -7 -40 -6 -13 -5
-18 4 -18 8 0 5 -5 -5 -11 -14 -8 -16 -14 -6 -25 9 -11 9 -14 -1 -14 -10 0
-10 -3 0 -15 9 -11 9 -15 1 -15 -7 0 -9 -4 -6 -10 3 -5 1 -10 -6 -10 -10 0
-10 -3 -1 -12 9 -9 7 -15 -6 -25 -9 -8 -11 -12 -4 -8 6 3 12 1 12 -4 0 -6 -4
-11 -10 -11 -5 0 -10 -5 -10 -11 0 -5 4 -8 9 -4 5 3 12 1 16 -5 5 -9 -6 -14
-25 -12 -4 0 -6 -10 -6 -24 0 -13 5 -24 11 -24 5 0 2 -7 -8 -14 -14 -11 -15
-15 -5 -19 7 -3 9 -6 3 -6 -11 -1 -12 -92 -1 -110 4 -6 3 -11 -2 -11 -5 0 -6
-17 -2 -40 5 -27 4 -40 -4 -40 -6 0 -4 -5 4 -10 11 -7 11 -10 2 -10 -10 0 -10
-5 -2 -20 6 -12 7 -20 1 -20 -10 0 -9 -25 2 -36 4 -4 2 -13 -4 -20 -7 -8 -6
-14 2 -20 8 -5 10 -3 4 7 -5 8 -4 11 0 6 5 -4 9 -16 10 -27 1 -15 -1 -17 -12
-8 -11 8 -12 7 -7 -6 3 -9 10 -16 15 -16 5 0 9 -16 9 -35 0 -19 5 -35 11 -35
8 0 8 -5 -1 -15 -10 -12 -10 -15 1 -15 12 0 12 -2 0 -9 -11 -7 -11 -9 0 -14
12 -5 12 -7 1 -15 -11 -8 -11 -10 1 -15 9 -3 13 -16 11 -33 -1 -16 2 -32 8
-35 7 -5 7 -12 -2 -25 -10 -17 -11 -17 -6 -1 3 11 2 16 -4 12 -12 -7 -40 18
-40 36 0 7 -3 9 -7 6 -3 -4 -15 8 -27 26 -11 17 -25 39 -31 48 -34 54 -37 62
-23 53 7 -4 5 2 -5 13 -9 11 -14 23 -10 26 3 4 0 7 -8 7 -11 0 -11 2 1 10 12
8 12 10 1 10 -8 0 -11 7 -8 20 3 11 2 20 -3 20 -4 0 -11 7 -14 16 -3 8 -2 13
2 10 5 -3 9 1 9 9 0 8 -4 12 -9 9 -13 -8 -10 10 5 25 10 11 9 12 -1 7 -9 -6
-11 -1 -8 16 3 17 -1 24 -13 24 -10 0 -18 -6 -18 -13 0 -7 5 -9 11 -6 6 4 5
-1 -3 -10 -7 -9 -10 -17 -5 -17 5 0 2 -5 -6 -10 -12 -8 -12 -10 -1 -10 11 0
11 -3 1 -15 -10 -12 -10 -15 1 -15 10 0 10 -3 1 -12 -15 -15 -15 -28 -1 -28 5
0 7 5 3 12 -4 7 -3 8 5 4 7 -5 9 -12 3 -19 -5 -7 -7 -32 -5 -57 3 -25 5 -53 6
-62 1 -10 5 -18 10 -18 5 0 4 -7 -3 -16 -8 -8 -9 -14 -4 -13 29 5 37 -2 18
-16 -18 -15 -18 -15 0 -8 13 4 17 3 12 -5 -3 -6 -2 -14 4 -17 6 -4 8 -15 5
-26 -5 -13 -2 -19 7 -17 7 2 12 -3 11 -9 -2 -7 2 -13 9 -13 6 0 9 -3 5 -6 -3
-3 3 -15 13 -27 11 -11 16 -25 13 -31 -3 -6 -3 -8 1 -4 9 8 72 -50 69 -63 -2
-5 5 -9 16 -9 10 0 25 -8 32 -17 12 -14 12 -16 0 -8 -9 5 -12 4 -7 -3 4 -6 14
-8 23 -5 11 4 14 3 9 -5 -4 -7 -2 -12 3 -12 6 0 11 -7 11 -15 0 -8 6 -15 13
-15 8 0 7 -4 -3 -10 -12 -8 -12 -10 -1 -10 8 0 11 -7 8 -20 -3 -11 -2 -18 3
-15 10 6 19 -16 13 -32 -7 -20 -30 -15 -46 8 -11 15 -17 17 -22 8 -6 -8 -12
-4 -22 14 -8 17 -19 24 -28 21 -8 -4 -15 -1 -15 5 0 6 -7 11 -16 11 -8 0 -12
5 -9 10 3 6 -1 10 -10 10 -9 0 -13 4 -10 10 3 6 -1 10 -10 10 -11 0 -15 5 -11
16 3 8 2 12 -4 9 -5 -3 -18 5 -29 17 -16 17 -18 24 -9 31 8 5 3 6 -12 1 -14
-3 -22 -3 -18 1 4 5 0 14 -10 22 -9 8 -11 12 -4 8 6 -3 12 -1 12 4 0 6 -7 11
-16 11 -8 0 -12 5 -9 10 3 6 1 10 -5 10 -6 0 -8 5 -5 10 3 6 1 10 -5 10 -7 0
-10 7 -6 15 3 8 1 15 -4 15 -6 0 -10 7 -10 15 0 8 -6 15 -12 15 -9 0 -8 4 2
10 13 9 8 14 -12 11 -3 0 -5 13 -3 30 3 20 1 27 -7 23 -8 -5 -9 -2 -5 9 3 10
2 17 -3 17 -6 0 -10 5 -10 11 0 5 4 7 10 4 6 -3 7 1 4 9 -3 9 -9 16 -13 16 -4
0 -8 7 -8 15 0 8 4 12 9 9 4 -3 8 0 8 5 0 6 -6 11 -12 11 -9 0 -8 4 2 10 8 5
10 10 4 10 -7 0 -15 7 -18 16 -4 9 -2 13 5 8 8 -4 9 1 4 16 -6 17 -4 21 6 15
8 -5 7 0 -3 11 -11 12 -14 24 -8 33 4 8 6 20 3 28 -3 7 0 13 6 13 6 0 11 5 11
11 0 5 -4 8 -8 5 -4 -2 -8 8 -7 24 0 15 3 26 7 23 13 -7 9 12 -5 26 -9 11 -9
13 0 7 9 -5 13 0 13 13 0 11 5 23 10 26 7 4 7 13 0 24 -6 12 -5 22 1 28 6 6
11 24 13 41 1 17 6 35 11 39 4 4 5 2 0 -6 -5 -9 -4 -12 3 -8 5 4 8 17 4 29 -4
15 -2 19 7 13 10 -6 11 -3 1 15 -10 18 -9 21 1 15 9 -6 11 -3 6 8 -3 9 -3 16
1 16 18 -3 26 2 14 10 -11 7 -11 10 0 22 7 8 13 20 14 27 2 29 5 33 17 26 7
-5 7 -2 -2 10 -12 15 -12 17 0 14 9 -2 14 6 13 24 0 23 2 25 15 15 9 -6 13 -7
9 -3 -4 5 -2 16 5 24 9 13 9 14 0 8 -7 -4 -13 -3 -13 3 0 5 5 11 10 13 6 2 12
13 12 25 2 14 7 19 17 15 10 -4 13 0 9 16 -4 13 0 26 11 34 15 12 15 11 1 -7
-14 -19 -14 -19 3 -6 14 11 15 16 5 29 -10 13 -10 14 0 8 6 -4 12 -3 12 3 0 5
6 16 13 23 6 7 18 25 26 40 8 15 19 25 25 22 6 -3 3 1 -6 9 -10 8 -15 17 -11
21 11 11 -29 -5 -52 -21 -11 -7 -16 -13 -12 -13 8 0 -2 -13 -35 -50 -9 -10
-13 -22 -10 -26 4 -4 0 -5 -8 -2 -11 4 -16 -1 -18 -15 0 -12 -8 -27 -16 -33
-9 -6 -12 -15 -8 -19 4 -5 -2 -5 -12 -1 -16 5 -17 4 -6 -9 9 -11 9 -15 1 -15
-7 0 -17 -13 -22 -30 -6 -16 -15 -30 -21 -30 -5 0 -7 -4 -3 -9 3 -5 0 -13 -6
-17 -7 -4 -9 -3 -5 4 3 6 2 13 -3 16 -5 4 -8 -5 -7 -18 2 -15 -3 -27 -12 -31
-8 -3 -12 -8 -9 -11 3 -4 -4 -15 -16 -25 -12 -10 -16 -18 -9 -19 6 0 12 5 12
12 0 6 3 8 7 4 4 -4 -3 -16 -17 -28 -14 -11 -18 -17 -10 -13 8 4 7 0 -4 -9
-10 -8 -15 -19 -11 -25 3 -6 1 -11 -4 -11 -6 0 -10 -6 -8 -12 1 -7 -3 -12 -9
-11 -7 1 -10 -6 -7 -17 3 -11 0 -20 -6 -20 -6 0 -10 -3 -10 -7 3 -20 -2 -34
-10 -29 -5 4 -7 -4 -3 -16 4 -16 2 -19 -9 -13 -11 7 -11 5 1 -10 8 -10 10 -16
4 -12 -13 8 -27 -19 -18 -34 3 -5 0 -9 -7 -9 -7 0 -9 -3 -6 -7 4 -3 2 -12 -5
-20 -6 -7 -12 -24 -13 -36 -4 -48 -18 -87 -29 -80 -8 5 -8 3 0 -8 9 -12 11
-34 4 -41 -4 -4 -11 -49 -11 -71 0 -9 -4 -15 -8 -13 -4 3 -7 -6 -7 -19 0 -13
3 -22 6 -20 3 2 6 -5 6 -15 0 -10 -4 -17 -7 -14 -10 6 -5 -38 6 -55 5 -10 4
-12 -3 -7 -13 8 -17 -16 -5 -28 10 -10 13 -37 3 -31 -10 6 -7 -21 3 -31 12
-12 8 -26 -5 -18 -7 4 -4 -3 6 -15 20 -22 20 -22 0 -15 -15 5 -15 3 4 -11 17
-13 20 -20 12 -30 -7 -9 -7 -14 -1 -17 6 -1 12 -15 13 -30 1 -16 6 -28 11 -28
5 0 7 -9 4 -20 -3 -13 -1 -18 6 -13 7 4 8 0 4 -11 -4 -10 -3 -15 3 -11 6 3 10
-3 10 -14 0 -12 5 -21 10 -21 6 0 10 -6 10 -14 0 -8 14 -30 30 -48 29 -31 34
-42 31 -62 -1 -5 6 -6 15 -2 10 4 17 0 21 -12 2 -10 17 -26 34 -37 16 -11 29
-23 29 -27 0 -5 6 -8 14 -8 8 0 17 -7 20 -16 3 -8 10 -12 16 -9 5 3 10 1 10
-5 0 -6 5 -8 10 -5 6 3 10 -1 10 -10 0 -9 4 -14 9 -10 5 3 16 -2 24 -10 9 -8
21 -15 27 -15 6 0 8 -5 4 -12 -6 -10 -4 -10 8 0 18 14 34 0 22 -19 -5 -8 -1
-8 14 0 15 8 23 7 31 -3 6 -7 9 -15 6 -18 -3 -2 2 -5 10 -5 8 0 12 5 9 11 -3
6 2 2 10 -8 12 -15 16 -16 16 -5 1 10 3 10 11 -3 5 -9 16 -15 23 -12 7 3 20
-2 29 -10 12 -12 17 -13 20 -3 4 9 6 9 6 0 1 -7 8 -10 18 -6 12 5 14 3 8 -8
-7 -11 -5 -11 10 1 10 8 16 10 12 4 -4 -7 0 -14 8 -18 8 -3 17 -1 20 4 4 6 11
10 16 10 6 0 8 -4 4 -9 -3 -6 4 -15 15 -21 11 -6 18 -15 15 -21 -4 -5 -1 -9 5
-9 6 0 8 -4 5 -10 -3 -5 -1 -10 5 -10 7 0 9 -7 6 -16 -3 -8 -2 -13 2 -10 4 2
14 -10 22 -27 7 -18 19 -38 26 -45 7 -7 11 -19 7 -28 -3 -9 0 -14 8 -12 8 2
13 -3 12 -9 -2 -7 2 -13 7 -13 6 0 10 -9 10 -21 0 -11 5 -17 10 -14 6 3 10 -3
10 -15 0 -12 4 -19 9 -16 7 4 36 -42 32 -52 -4 -8 25 -29 33 -24 5 3 6 -2 3
-12 -4 -10 -1 -19 8 -22 8 -4 15 -11 15 -18 0 -6 8 -19 18 -28 27 -26 42 -46
42 -58 0 -6 5 -8 10 -5 6 3 10 -1 10 -9 0 -8 8 -20 18 -25 9 -6 14 -11 9 -11
-4 0 13 -20 38 -46 25 -25 43 -49 40 -55 -6 -8 8 -13 28 -10 4 0 7 -4 7 -9 0
-6 11 -21 25 -34 13 -13 22 -26 18 -29 -3 -4 1 -7 10 -7 9 0 24 -11 33 -25 9
-14 19 -23 22 -20 3 3 14 -7 24 -22 10 -16 18 -24 18 -19 0 4 13 -6 29 -23 15
-16 32 -27 36 -23 5 4 5 -1 2 -11 -4 -10 -3 -16 2 -13 4 3 17 -3 28 -14 12
-10 24 -16 27 -13 3 4 6 -1 6 -11 0 -9 4 -15 9 -11 6 3 15 -4 21 -15 6 -11 17
-20 25 -20 8 0 15 -5 15 -11 0 -6 7 -8 16 -5 8 3 12 2 9 -4 -3 -6 5 -14 19
-20 14 -5 26 -14 26 -20 0 -5 6 -9 13 -7 6 1 11 -3 10 -10 -2 -7 6 -10 17 -8
11 2 19 1 17 -3 -1 -4 2 -8 7 -9 5 0 13 -8 18 -17 5 -9 13 -14 19 -11 5 4 9 1
9 -4 0 -6 5 -11 11 -11 6 0 17 -7 26 -16 9 -8 22 -13 30 -10 8 3 11 1 8 -4 -6
-9 8 -14 28 -11 4 0 7 -6 7 -15 0 -10 6 -14 15 -10 8 3 15 2 15 -2 0 -5 16
-14 35 -22 19 -8 35 -18 35 -22 0 -5 4 -7 9 -4 5 3 14 -1 21 -9 7 -8 25 -15
41 -15 19 0 29 -5 29 -14 0 -9 7 -13 20 -11 11 2 20 1 20 -3 0 -11 58 -34 69
-28 5 3 12 -1 15 -10 4 -9 13 -14 21 -10 8 3 15 1 15 -4 0 -5 7 -6 17 -3 11 4
14 3 9 -5 -5 -8 2 -12 22 -12 16 0 35 -7 42 -15 11 -13 15 -13 21 -3 5 7 9 8
9 3 0 -6 10 -12 22 -12 13 -1 28 -10 35 -19 8 -10 13 -13 13 -6 0 9 5 10 19 3
10 -6 21 -7 25 -4 3 3 6 2 6 -4 0 -6 9 -9 20 -6 11 3 20 1 20 -4 0 -5 17 -10
37 -11 20 -1 40 -7 45 -14 6 -10 8 -9 8 2 0 12 2 13 9 1 5 -7 13 -11 19 -7 14
9 43 -4 36 -16 -3 -5 3 -4 14 3 17 10 23 10 38 -6 16 -16 19 -16 28 -2 8 13
11 13 25 -2 9 -9 12 -11 7 -4 -7 10 -4 12 10 7 10 -4 24 -11 31 -16 7 -6 14
-5 18 3 6 8 10 7 16 -2 7 -11 9 -11 9 1 0 13 2 13 9 1 8 -13 12 -13 27 0 11 8
15 9 10 2 -10 -18 505 -17 516 0 6 9 8 9 8 0 0 -7 5 -13 11 -13 5 0 8 4 5 8
-3 5 1 9 9 9 8 0 12 -4 10 -8 -4 -6 25 -5 33 1 5 5 23 8 53 9 19 1 28 5 23 12
-4 8 -1 8 12 1 23 -11 47 -5 37 11 -4 7 1 6 10 -2 14 -11 17 -11 17 0 0 11 2
11 10 -1 6 -9 10 -10 10 -3 0 6 9 10 20 8 11 -2 20 1 20 6 0 5 6 9 13 8 36 -4
68 2 61 13 -4 7 -3 8 5 4 6 -4 19 -2 28 6 12 9 15 9 9 1 -4 -7 -2 -13 3 -13 6
0 11 4 11 10 0 5 7 6 17 3 11 -4 14 -3 9 5 -5 8 -2 10 8 6 9 -3 16 -2 16 4 0
6 10 8 22 4 12 -3 19 -1 15 5 -3 5 0 10 8 10 8 0 15 -4 15 -9 0 -5 7 -3 15 6
9 8 22 13 30 10 9 -4 18 1 21 11 5 13 9 14 15 3 6 -8 9 -9 9 -2 0 7 7 15 16
18 10 4 13 2 8 -7 -4 -6 1 -5 12 4 10 9 27 15 37 14 9 -2 15 0 12 5 -5 7 42
25 58 22 4 -1 7 3 7 9 0 6 7 8 16 5 8 -3 12 -2 9 4 -3 6 5 10 19 10 16 0 26 6
26 15 0 8 6 12 14 9 8 -3 17 0 21 5 3 6 11 9 16 6 5 -4 9 -1 9 5 0 6 4 9 9 6
5 -3 14 1 21 9 7 8 16 12 21 9 5 -3 9 0 9 5 0 6 5 11 11 11 6 0 25 10 42 22
18 13 28 16 23 7 -4 -7 -1 -6 7 4 8 9 19 17 26 17 6 0 11 5 11 11 0 5 5 7 10
4 6 -3 10 -1 10 5 0 6 5 8 10 5 6 -3 10 -1 10 4 0 6 6 11 14 11 8 0 17 7 20
16 3 8 10 12 16 9 5 -3 10 -1 10 5 0 6 5 8 10 5 6 -3 10 1 10 10 0 9 4 13 10
10 5 -3 20 3 32 14 12 12 28 21 35 21 8 0 11 5 8 10 -6 9 8 14 28 11 5 -1 6 3
2 9 -3 5 -1 10 5 10 6 0 8 5 4 12 -5 7 -3 8 6 3 7 -4 16 -2 21 6 4 8 14 14 21
14 7 1 12 7 10 14 -1 7 2 10 8 6 5 -3 13 1 16 9 3 9 12 16 20 16 8 0 14 4 14
9 0 5 9 13 20 16 11 4 18 11 15 16 -4 5 2 12 11 16 10 4 42 30 70 59 29 29 55
50 58 46 3 -3 6 0 6 6 0 15 36 52 50 52 5 0 9 4 7 8 -2 9 21 37 81 98 19 19
30 34 25 34 -4 0 -1 5 7 10 11 7 0 10 -37 10 -50 0 -52 1 -47 26 3 19 1 24 -8
18 -10 -6 -9 -3 1 9 7 9 10 17 6 17 -4 0 -2 7 5 16 11 12 11 15 0 12 -7 -2
-15 3 -18 11 -3 10 0 12 12 8 13 -5 15 -3 8 11 -5 9 -7 23 -5 30 3 6 -1 12 -9
12 -10 0 -11 2 0 9 10 6 9 11 -4 22 -15 12 -17 12 -9 0 5 -10 4 -12 -4 -7 -6
4 -9 11 -6 16 3 5 -6 20 -20 34 -14 14 -22 26 -18 26 4 0 0 5 -9 11 -10 5 -22
19 -28 29 -9 17 -8 19 7 13 15 -5 16 -3 6 8 -7 7 -13 17 -13 22 0 4 6 5 13 1
8 -5 8 -2 -2 9 -11 14 -11 17 0 17 9 0 10 3 2 11 -7 7 -8 21 -3 40 5 18 5 27
-1 24 -5 -4 -9 1 -9 10 0 10 5 13 13 9 8 -5 8 -2 -2 9 -11 14 -11 17 0 17 10
1 9 5 -4 14 -12 10 -14 15 -6 18 7 2 -2 10 -19 17 -18 8 -32 18 -32 23 0 5
-10 18 -22 29 -13 10 -18 18 -11 19 8 0 11 13 8 40 -2 22 1 40 6 40 6 0 8 4 4
9 -3 6 2 14 11 19 9 5 17 13 17 18 1 5 6 8 11 6 5 -2 4 3 -3 11 -7 9 -8 16 -2
19 5 1 11 10 13 18 2 8 9 21 16 28 7 8 10 18 7 23 -4 5 1 6 10 2 18 -6 19 -8
-18 63 -9 17 -13 35 -9 39 4 5 -2 5 -13 1 -11 -4 -16 -4 -12 0 4 4 1 14 -6 22
-10 13 -9 14 3 7 13 -8 13 -6 1 8 -7 9 -18 14 -24 10 -6 -4 -8 0 -4 10 4 10 1
17 -5 17 -6 0 -9 3 -5 6 3 4 0 13 -8 20 -8 8 -12 21 -9 28 3 8 0 17 -7 22 -8
5 -10 3 -5 -7 4 -8 0 -5 -8 5 -9 11 -16 28 -16 39 0 12 -4 16 -12 11 -7 -4
-10 -4 -6 1 4 4 2 15 -4 24 -7 9 -8 13 -3 8 4 -4 17 1 28 10 11 10 17 13 14 6
-4 -6 -3 -14 3 -18 5 -3 10 0 10 7 0 9 3 9 10 -2 8 -12 10 -12 10 -1 0 8 7 11
20 8 10 -3 21 0 24 7 2 6 5 1 5 -12 1 -13 5 -20 11 -17 6 3 10 0 10 -7 0 -9 2
-10 8 -2 5 9 10 8 20 -2 7 -7 12 -16 12 -19 -1 -22 1 -25 11 -19 8 4 8 0 0
-15 -7 -11 -8 -21 -3 -21 5 0 8 -15 7 -34 0 -19 2 -33 6 -30 4 2 10 -3 13 -12
4 -10 2 -13 -7 -8 -8 6 -8 3 1 -9 8 -9 11 -21 7 -27 -3 -5 -1 -10 6 -10 8 0 8
-4 -1 -15 -10 -12 -9 -16 4 -21 14 -5 14 -9 4 -22 -8 -10 -9 -13 -1 -9 6 4 19
0 27 -9 9 -9 16 -11 16 -4 0 6 5 8 12 4 8 -5 9 -2 5 10 -4 10 -3 15 3 11 6 -3
13 0 16 9 3 8 12 12 20 9 8 -3 14 -2 13 3 -4 21 2 35 11 29 6 -4 7 1 3 11 -4
11 -3 15 5 10 7 -4 13 6 18 29 3 19 10 38 15 41 5 3 7 10 4 15 -4 5 -1 9 5 9
8 0 7 6 -1 21 -9 17 -8 23 2 30 11 7 11 9 1 9 -10 0 -10 4 2 16 18 17 21 28 6
19 -5 -3 -10 1 -10 9 0 8 5 18 10 21 8 5 8 11 1 19 -7 9 -7 16 2 25 9 9 9 14
-3 21 -10 7 -11 10 -2 10 6 0 12 5 12 11 0 5 -6 7 -12 3 -10 -6 -10 -4 0 7 6
7 12 17 12 22 0 4 -6 5 -12 1 -9 -5 -9 -3 1 9 7 9 11 26 8 36 -3 11 0 22 7 25
8 3 8 5 -1 5 -8 1 -9 10 -4 29 5 15 14 26 20 24 7 -1 15 7 18 18 3 11 9 18 12
15 4 -2 8 2 8 10 0 8 -4 15 -9 15 -4 0 -8 6 -8 14 0 9 -7 12 -18 9 -12 -3 -19
1 -19 11 0 8 4 13 9 10 4 -3 8 0 8 5 0 6 -6 11 -12 11 -10 0 -10 2 0 9 8 4 14
12 14 16 0 4 -6 12 -14 16 -10 7 -8 9 6 9 15 0 16 3 6 15 -8 10 -9 15 -2 15 6
0 9 6 7 13 -5 14 22 53 31 44 4 -3 15 4 26 16 11 12 17 16 13 10 -3 -7 -2 -13
2 -13 5 0 15 6 22 13 11 10 13 9 7 -3 -5 -10 -3 -9 7 2 11 14 16 15 26 5 10
-9 12 -9 9 3 -2 8 2 14 7 15 6 0 16 4 23 8 6 5 12 5 12 0 0 -4 4 -3 8 2 4 6
16 17 27 25 16 11 17 11 8 0 -26 -29 -12 -27 17 1 16 17 34 28 39 25 5 -3 15
2 22 12 13 16 13 16 -6 2 -19 -14 -19 -14 -6 2 7 10 18 15 23 12 5 -3 16 2 24
12 9 11 13 13 9 7 -4 -8 -1 -11 9 -7 9 3 14 11 13 17 -1 7 5 12 13 12 8 0 23
9 33 20 16 19 17 19 10 1 -6 -19 -6 -19 14 0 11 10 18 23 15 27 -2 5 4 7 14 5
11 -2 18 2 17 9 -2 7 6 10 17 8 12 -2 18 0 15 6 -4 5 1 9 10 9 9 0 13 5 10 10
-3 6 1 10 10 10 9 0 29 9 45 20 15 11 37 18 49 15 12 -2 19 0 16 5 -7 11 30
32 39 23 3 -3 6 0 6 8 0 11 2 11 10 -1 7 -11 10 -11 10 -2 0 7 4 11 9 8 5 -3
12 1 15 10 4 10 14 14 26 11 11 -3 18 -1 15 3 -3 5 4 14 16 20 15 8 19 8 15 1
-5 -7 -1 -9 8 -5 9 3 13 11 9 17 -3 6 -1 7 5 3 7 -4 12 -18 12 -32 0 -16 6
-24 18 -24 13 0 14 -2 4 -9 -11 -7 -11 -11 2 -24 12 -11 13 -17 3 -20 -9 -4
-9 -6 1 -6 6 -1 12 -10 12 -22 0 -12 4 -17 11 -14 6 4 10 1 8 -6 -4 -36 2 -80
11 -74 6 3 10 -1 10 -10 0 -10 5 -13 12 -9 7 4 8 3 4 -5 -4 -6 -1 -24 7 -41 8
-16 12 -31 9 -35 -3 -3 -6 -14 -7 -25 -1 -15 1 -17 11 -9 11 9 11 5 4 -20 -6
-20 -5 -33 2 -37 7 -5 8 -2 3 6 -5 9 -4 11 4 6 6 -4 9 -12 5 -17 -3 -5 0 -17
8 -26 9 -12 9 -15 1 -9 -7 4 -13 2 -13 -3 0 -6 4 -11 10 -11 5 0 6 -7 3 -17
-5 -12 -3 -14 8 -8 12 7 12 6 1 -7 -9 -11 -10 -18 -2 -23 5 -3 10 -15 10 -26
0 -11 -4 -17 -10 -14 -5 3 -10 3 -11 -2 0 -4 -2 -16 -4 -25 -2 -10 1 -18 6
-18 6 0 7 -6 3 -12 -6 -10 -4 -10 7 0 20 19 26 15 24 -18 -1 -16 2 -27 7 -24
5 3 6 -6 2 -20 -4 -18 -2 -26 7 -26 11 0 11 -3 -1 -10 -10 -6 -11 -10 -2 -10
6 0 12 -9 12 -21 0 -15 -5 -19 -16 -15 -8 3 -13 2 -10 -3 3 -4 -2 -17 -10 -27
-9 -10 -12 -13 -8 -5 4 9 3 12 -3 8 -6 -4 -13 -18 -15 -31 l-5 -24 34 19 c18
10 33 14 33 8 0 -5 5 -7 10 -4 7 4 9 -3 6 -19 -3 -14 0 -29 6 -32 7 -5 8 -2 3
7 -5 8 -4 11 1 6 12 -12 12 -50 -1 -59 -6 -5 -6 -8 3 -8 6 0 12 -11 12 -25 0
-14 -4 -25 -8 -25 -5 0 -9 -7 -9 -15 0 -12 3 -12 16 -2 11 9 13 9 8 0 -5 -7
-1 -23 8 -37 15 -23 15 -25 -2 -29 -17 -5 -17 -5 0 -6 10 0 16 -5 13 -10 -4
-5 -2 -21 4 -35 7 -19 6 -26 -3 -27 -6 0 -3 -4 8 -9 11 -5 15 -9 9 -9 -6 -1
-11 -8 -11 -16 0 -8 4 -12 9 -9 5 3 7 -6 4 -21 -4 -20 -1 -25 9 -21 9 3 12 0
8 -9 -3 -8 -9 -12 -14 -9 -5 3 -6 -2 -3 -10 3 -9 11 -13 18 -9 6 4 5 -1 -3
-10 -8 -11 -9 -17 -3 -17 7 0 9 -7 5 -17 -5 -11 -3 -14 6 -8 10 6 11 3 2 -14
-10 -18 -9 -21 6 -22 16 0 16 -1 -2 -9 -11 -5 -14 -9 -6 -9 8 -1 11 -8 8 -21
-3 -11 -1 -23 4 -26 5 -3 7 -10 4 -15 -4 -5 -1 -9 6 -9 8 0 8 -4 -1 -15 -10
-12 -10 -15 1 -15 11 0 11 -2 -1 -10 -12 -8 -12 -10 -1 -10 8 0 11 -7 8 -20
-3 -11 -1 -20 3 -20 4 0 6 -10 2 -22 -4 -15 -2 -19 7 -13 10 6 11 3 2 -13 -12
-22 4 -68 28 -77 12 -5 12 -3 0 11 -13 16 -12 16 10 4 21 -11 23 -10 18 3 -4
11 -2 14 9 10 10 -3 26 6 44 25 15 17 31 28 34 24 4 -3 4 2 0 12 -6 15 -4 17
6 11 8 -5 11 -4 6 3 -4 6 -1 20 6 31 9 15 9 23 0 34 -10 11 -9 17 1 26 8 6 16
9 19 6 2 -3 5 2 5 10 0 8 -4 12 -9 9 -11 -7 -10 9 2 41 7 19 7 24 -1 19 -7 -4
-7 1 1 16 9 18 9 24 0 30 -9 5 -9 9 -1 14 6 4 11 12 11 17 0 6 -4 8 -8 5 -5
-3 -9 1 -9 9 0 8 4 12 9 9 9 -6 6 25 -5 43 -4 6 -2 15 4 19 8 5 9 3 4 -6 -5
-8 -4 -11 3 -6 14 9 3 38 -12 30 -6 -3 -3 1 6 9 13 10 15 16 6 25 -9 9 -9 12
0 12 10 0 10 5 1 22 -10 18 -9 20 6 14 14 -5 16 -4 7 7 -7 8 -9 17 -5 20 3 4
0 7 -8 7 -11 0 -11 2 1 10 8 5 11 10 6 10 -5 0 -3 6 3 14 8 10 9 16 1 21 -5 3
-10 11 -10 16 0 6 5 7 10 4 6 -3 10 -1 10 4 0 6 -5 11 -11 11 -8 0 -8 5 1 15
9 11 10 19 1 28 -8 10 -7 17 1 25 9 9 9 12 -1 12 -7 0 -9 5 -6 10 4 6 10 8 14
6 4 -3 8 1 8 9 0 8 -4 12 -9 9 -4 -3 -8 -1 -8 5 0 5 5 13 12 17 7 5 5 11 -7
21 -11 7 -13 13 -6 13 7 0 9 5 5 13 -6 9 -4 9 8 -1 14 -11 18 -10 27 5 10 17
10 17 11 -2 1 -11 4 -15 6 -8 3 7 12 9 20 6 8 -3 14 0 14 6 0 7 8 15 18 18 9
4 23 14 30 22 11 13 12 13 7 1 -4 -10 -2 -9 8 3 8 9 22 17 31 17 10 0 15 4 11
9 -3 5 -1 12 5 16 5 3 10 1 10 -5 0 -6 5 -8 10 -5 6 4 7 11 4 17 -5 8 -1 9 12
4 10 -4 15 -4 11 0 -4 4 -2 13 4 21 9 9 8 17 0 27 -6 7 -8 22 -4 31 4 13 3 16
-5 11 -7 -4 -12 -1 -12 9 0 10 -5 13 -12 9 -8 -5 -9 -2 -5 9 5 13 1 17 -14 17
-11 0 -17 5 -14 10 7 11 -18 8 -47 -4 -9 -4 -23 -4 -30 0 -8 5 -8 1 2 -11 9
-11 10 -16 3 -11 -8 4 -13 2 -13 -4 0 -6 -5 -8 -10 -5 -9 6 -42 -18 -37 -26 1
-2 0 -3 -2 -2 -2 2 -11 -3 -19 -10 -13 -9 -14 -9 -8 1 4 7 2 12 -5 12 -8 0 -7
5 2 17 12 14 12 15 1 9 -11 -7 -12 -4 -3 12 14 27 14 35 -1 26 -10 -6 -10 -5
-2 7 7 8 11 29 9 46 -2 21 1 30 8 26 6 -4 7 -1 2 7 -13 22 -11 54 5 68 13 12
13 13 -2 8 -13 -4 -15 -1 -11 12 3 9 11 23 17 31 8 11 8 13 -2 7 -8 -5 -11 -1
-9 13 2 11 6 23 10 27 3 4 2 16 -4 27 -8 14 -8 18 0 13 6 -4 11 -2 11 3 0 6
-6 11 -12 11 -9 0 -8 4 2 10 13 8 13 10 0 10 -11 0 -11 3 -2 12 10 10 17 10
34 -1 18 -11 20 -11 15 2 -4 10 0 14 11 12 9 -1 22 2 29 7 7 5 18 6 25 2 8 -5
8 -1 -2 11 -9 11 -10 16 -2 11 7 -4 19 0 28 9 9 9 23 14 30 11 8 -3 11 0 7 10
-3 8 1 14 11 14 21 0 53 33 48 50 -3 8 0 10 8 5 7 -4 5 3 -4 17 -9 14 -13 28
-9 31 3 4 2 7 -4 7 -6 0 -13 9 -16 21 -3 12 -10 18 -16 14 -6 -3 -11 -1 -11 5
0 7 -7 10 -15 6 -10 -3 -15 1 -15 11 0 14 -2 14 -19 -1 -11 -10 -25 -15 -32
-10 -8 4 -10 3 -5 -4 7 -11 -7 -17 -29 -12 -5 1 -7 -2 -3 -6 4 -4 0 -13 -10
-20 -23 -18 -32 -17 -32 2 0 9 5 12 12 8 7 -5 8 -3 4 5 -5 7 -15 10 -25 7 -12
-5 -11 -2 3 9 11 8 17 15 13 15 -4 0 -2 10 4 23 12 21 11 21 -6 7 -17 -14 -18
-13 -12 3 4 10 7 21 7 23 0 3 4 3 9 0 5 -4 7 8 4 25 -3 23 -1 29 8 24 8 -6 10
-4 3 6 -12 20 -14 39 -3 39 6 0 7 4 4 10 -12 20 -14 54 -4 67 6 7 9 20 5 28
-3 8 0 15 6 15 9 0 9 3 1 11 -9 9 -8 15 3 26 10 10 11 19 5 27 -6 7 -6 17 -1
26 6 9 5 17 -3 22 -9 6 -9 8 0 8 7 0 10 7 7 14 -9 22 26 75 44 68 10 -3 13 -1
8 6 -3 6 -2 13 4 17 5 3 10 1 10 -5 0 -6 5 -8 10 -5 6 4 8 11 5 16 -4 5 3 9
15 9 14 0 19 4 14 12 -5 8 -2 9 9 5 11 -4 17 -1 17 9 0 8 5 12 10 9 15 -9 41
15 33 29 -4 6 1 5 10 -3 15 -12 17 -11 17 3 0 10 5 14 10 11 6 -3 10 -2 10 2
0 13 56 44 64 35 4 -4 6 -2 4 5 -2 6 0 10 4 10 4 -1 15 8 23 21 9 12 23 22 31
22 8 0 17 6 20 14 3 8 18 20 34 26 16 7 29 15 28 19 -2 19 3 31 12 26 6 -3 10
-1 10 5 0 7 6 10 14 7 10 -4 12 0 9 14 -3 11 0 19 6 19 7 0 22 11 35 25 13 13
27 21 31 17 4 -4 6 0 3 8 -3 9 5 22 19 31 14 9 24 19 24 23 -3 23 0 36 8 31 5
-3 12 -1 16 5 3 5 1 10 -4 10 -6 0 -11 5 -11 11 0 5 4 8 9 5 5 -3 8 7 7 23 0
21 -5 27 -16 23 -8 -3 -12 -2 -8 3 13 13 -25 35 -39 23 -9 -8 -13 -7 -13 3 0
11 -2 11 -10 -1 -9 -13 -10 -13 -10 0 -1 12 -3 11 -11 -3 -8 -14 -14 -15 -24
-7 -9 8 -14 6 -19 -6 -5 -13 -9 -14 -20 -4 -12 9 -20 8 -39 -4 -13 -9 -27 -13
-30 -10 -4 4 -13 1 -21 -5 -8 -7 -20 -10 -25 -7 -5 4 -12 2 -16 -4 -4 -6 -12
-7 -18 -3 -9 5 -8 2 0 -8 10 -13 10 -16 -2 -16 -8 0 -15 5 -15 11 0 5 -6 2
-13 -8 -7 -9 -24 -18 -39 -19 -14 -1 -36 -13 -48 -27 -12 -14 -19 -19 -15 -12
3 6 2 12 -3 12 -6 0 -13 -7 -16 -16 -3 -9 -13 -14 -20 -11 -17 7 -39 -16 -28
-28 4 -5 2 -5 -5 -1 -6 3 -14 2 -18 -3 -3 -5 -14 -8 -25 -6 -11 2 -19 1 -19
-3 4 -22 -3 -32 -22 -32 -13 0 -18 -4 -13 -12 5 -7 3 -8 -6 -3 -7 4 -15 2 -20
-4 -4 -7 -13 -13 -21 -14 -17 -3 -56 -29 -58 -39 0 -5 -1 -11 -1 -15 0 -5 -5
-1 -10 7 -8 13 -10 12 -10 -3 0 -10 -4 -16 -9 -12 -5 3 -12 1 -16 -5 -3 -5
-11 -10 -16 -10 -6 0 -7 6 -3 13 5 8 2 8 -9 -2 -9 -7 -17 -9 -17 -3 0 5 -7 13
-16 16 -8 3 -12 2 -9 -4 3 -6 -1 -7 -9 -4 -9 3 -13 11 -9 17 4 6 0 8 -9 4 -9
-3 -21 0 -28 6 -10 9 -11 9 -6 0 4 -7 -1 -9 -14 -6 -11 3 -20 10 -20 15 0 6
-7 7 -16 4 -9 -3 -12 -2 -9 5 4 6 1 9 -6 8 -23 -4 -69 12 -69 24 0 6 -3 8 -6
4 -4 -3 -20 1 -36 9 -17 9 -27 11 -24 5 4 -6 2 -11 -3 -11 -6 0 -11 10 -11 23
0 12 -4 18 -8 12 -9 -12 -44 -16 -36 -4 3 5 -4 9 -16 9 -12 0 -19 4 -16 9 4 5
-3 7 -14 4 -13 -3 -20 0 -20 8 0 12 -2 12 -9 0 -7 -11 -11 -9 -21 9 -10 19
-10 22 2 18 7 -3 24 3 37 13 14 12 18 19 10 20 -8 0 2 7 21 14 19 7 31 14 25
14 -5 1 -4 5 3 9 7 5 14 18 17 31 2 12 1 19 -4 17 -4 -3 -15 8 -25 25 -9 16
-14 29 -10 29 4 0 -6 11 -21 24 -27 24 -62 25 -48 2 4 -6 -2 -4 -13 4 -10 8
-16 11 -12 6 12 -14 -55 -62 -72 -51 -5 3 -17 -6 -26 -20 -9 -13 -19 -23 -23
-21 -3 2 -15 -6 -26 -17 -11 -11 -13 -16 -5 -12 12 7 13 6 3 -7 -7 -8 -11 -17
-8 -20 3 -3 -6 -4 -19 -4 -14 1 -29 6 -33 10 -5 5 -2 6 6 1 9 -5 12 -4 8 3 -4
5 -16 8 -27 5 -11 -3 -20 0 -20 6 0 6 -11 11 -25 11 -14 0 -28 6 -31 14 -3 8
-13 12 -25 9 -11 -3 -19 0 -19 7 0 7 -8 10 -19 7 -12 -3 -22 1 -25 9 -3 8 -11
14 -17 14 -7 0 -22 8 -33 18 -14 11 -17 12 -9 2 10 -13 8 -16 -7 -16 -12 0
-17 6 -14 19 3 15 1 17 -11 7 -13 -11 -18 -8 -17 10 0 3 -11 6 -25 5 -17 0
-27 6 -28 17 -2 11 2 15 13 11 10 -4 13 -2 8 5 -6 11 6 17 27 13 4 -1 10 6 13
14 4 8 12 15 20 15 8 0 14 5 14 11 0 8 4 8 14 0 11 -9 13 -6 11 14 -2 14 1 25
7 25 6 0 4 7 -3 17 -12 14 -12 16 0 8 9 -5 7 2 -5 18 -10 15 -23 27 -27 27 -5
0 -5 5 -2 10 3 6 1 10 -4 10 -6 0 -11 7 -11 15 0 9 -6 12 -17 8 -12 -5 -14 -3
-8 8 8 12 6 12 -8 0 -9 -7 -17 -10 -17 -5 0 4 -12 -3 -27 -17 -14 -13 -23 -18
-19 -11 4 6 2 12 -3 12 -10 0 -15 -14 -12 -33 1 -5 -3 -6 -8 -3 -13 8 -62 -19
-53 -29 4 -5 -1 -5 -10 -2 -12 4 -18 1 -18 -8 0 -9 -8 -12 -20 -10 -16 3 -19
1 -11 -13 6 -11 4 -20 -7 -30 -10 -7 -12 -11 -5 -8 6 4 14 2 17 -3 9 -13 -37
-8 -53 7 -7 7 -20 11 -28 8 -8 -3 -11 -1 -8 4 3 6 -2 10 -12 10 -10 0 -33 9
-52 21 -18 11 -40 18 -48 15 -9 -4 -11 -2 -7 6 5 7 0 9 -14 6 -16 -4 -23 0
-28 14 -5 16 -8 18 -15 7 -7 -12 -9 -12 -9 0 0 8 -3 11 -7 8 -3 -4 -12 1 -20
11 -12 16 -13 16 -6 -2 6 -18 5 -18 -20 -1 -26 17 -39 34 -15 19 7 -4 8 -3 4
5 -6 9 -11 9 -22 0 -10 -8 -14 -8 -14 0 0 6 -7 11 -15 11 -8 0 -15 6 -15 13 0
8 -4 7 -10 -3 -7 -11 -10 -11 -10 -2 0 7 -4 11 -9 8 -5 -3 -11 1 -15 9 -3 8
-12 12 -19 9 -8 -3 -21 2 -30 10 -12 12 -17 13 -20 3 -4 -9 -6 -9 -6 1 -1 6
-10 12 -21 12 -11 0 -20 4 -20 9 0 6 -9 8 -21 6 -17 -3 -18 -1 -10 9 9 11 8
14 -5 12 -9 0 -19 5 -21 12 -3 7 -1 12 4 11 20 -4 33 2 33 15 0 8 6 17 13 19
10 4 10 6 0 6 -7 1 -13 6 -13 12 0 5 5 7 11 4 6 -4 5 2 -2 13 -7 12 -19 18
-27 14 -9 -3 -13 -1 -9 4 3 6 -3 17 -15 25 -11 8 -31 25 -44 39 -13 14 -28 25
-33 25 -10 0 -56 33 -87 63 -13 13 -24 18 -24 11 0 -7 -9 -1 -21 12 -12 13
-25 23 -30 21 -5 -1 -9 3 -9 9 0 5 -4 7 -10 4 -5 -3 -10 1 -10 9 0 9 -6 13
-14 10 -7 -3 -16 2 -19 10 -4 9 -13 16 -22 16 -8 0 -15 5 -15 11 0 5 -4 7 -10
4 -5 -3 -10 -1 -10 5 0 7 -7 10 -15 6 -8 -3 -15 -1 -15 4 0 11 -80 54 -80 43
0 -5 -5 0 -11 10 -5 9 -17 17 -24 17 -8 0 -15 5 -15 11 0 5 -3 8 -8 5 -12 -7
-72 22 -72 35 0 8 -4 8 -15 -1 -12 -10 -16 -9 -21 4 -3 9 -10 13 -15 10 -5 -3
-9 0 -9 5 0 6 -9 11 -20 11 -11 0 -20 5 -20 11 0 5 -5 7 -11 4 -6 -4 -17 1
-25 11 -13 18 -14 18 -8 -1 5 -17 4 -18 -8 -5 -13 15 -31 22 -55 23 -7 0 -13
4 -13 9 0 4 -11 8 -25 8 -14 0 -25 5 -25 11 0 6 -7 9 -15 5 -8 -3 -21 1 -29 9
-18 18 -30 20 -20 3 4 -7 -8 -3 -28 9 -26 15 -39 18 -47 10 -8 -8 -11 -8 -11
1 0 7 -11 12 -25 12 -14 0 -25 5 -25 10 0 7 -7 7 -21 -1 -15 -8 -19 -8 -15 0
6 9 -36 17 -66 12 -5 0 -8 3 -8 7 0 8 -12 10 -85 14 -24 1 -35 6 -35 17 0 14
-2 14 -10 1 -5 -8 -10 -11 -10 -6 0 5 -6 3 -14 -3 -10 -8 -16 -9 -21 -1 -3 5
-15 10 -26 10 -10 0 -19 5 -19 10 0 6 -5 10 -11 10 -5 0 -7 -6 -3 -12 6 -10 4
-10 -7 0 -16 15 -33 16 -24 1 4 -6 -3 -5 -14 3 -18 11 -23 11 -31 -2 -6 -10
-10 -11 -10 -2 0 9 -45 12 -191 12 -141 0 -188 -3 -183 -12 5 -7 3 -8 -7 -2
-21 13 -80 14 -72 0 4 -6 0 -5 -9 2 -11 9 -18 10 -23 2 -3 -5 -15 -10 -26 -10
-11 0 -17 5 -14 10 3 6 4 10 0 10 -3 0 -10 -10 -15 -22z m1981 -545 c13 -16
12 -17 -3 -4 -10 7 -18 15 -18 17 0 8 8 3 21 -13z m-306 -332 c-3 -5 -1 -12 4
-16 6 -3 7 -13 4 -22 -5 -11 -3 -14 6 -8 10 6 11 3 2 -14 -7 -11 -8 -21 -3
-21 5 0 12 -14 16 -31 3 -17 10 -28 16 -24 5 3 10 0 10 -8 0 -15 53 -78 64
-77 32 2 33 -5 7 -39 -12 -16 -30 -25 -50 -26 -17 -1 -34 -4 -37 -8 -12 -12
-26 -8 -18 6 6 10 4 10 -7 0 -16 -16 -33 -17 -23 -1 5 7 3 8 -7 2 -20 -12 -39
-14 -39 -3 0 6 -4 8 -10 4 -5 -3 -7 9 -5 31 6 44 13 56 28 51 7 -2 18 2 25 10
8 7 19 10 25 6 8 -5 8 -2 0 9 -7 8 -9 19 -5 23 4 5 2 5 -5 1 -7 -3 -14 2 -18
13 -3 11 -12 18 -19 15 -8 -3 -21 4 -29 16 -10 14 -20 19 -29 14 -7 -4 -10 -4
-6 1 4 4 3 16 -2 26 -7 12 -6 22 5 32 8 8 11 17 8 20 -7 8 43 20 54 14 5 -3
15 -2 23 4 19 11 23 11 15 0z m346 -56 c5 4 6 -2 2 -11 -5 -13 -3 -15 7 -9 9
5 11 4 6 -3 -11 -19 -47 4 -39 25 4 11 8 13 11 5 2 -7 8 -10 13 -7z m-445 -68
c21 -7 24 -26 9 -60 -4 -10 -14 -16 -22 -13 -8 3 -12 2 -9 -3 6 -9 -43 -47
-79 -61 -21 -8 -25 -6 -26 8 0 16 -1 16 -7 0 -7 -17 -8 -16 -20 2 -7 12 -8 20
-2 20 5 0 9 3 9 8 -4 22 2 42 11 37 6 -3 10 3 10 15 0 39 71 66 126 47z m574
-32 c5 3 17 -6 26 -20 9 -14 24 -25 34 -25 10 0 24 -8 31 -17 12 -16 12 -17
-1 -8 -9 6 -7 2 4 -8 10 -10 25 -16 33 -13 7 3 13 -1 13 -10 0 -9 5 -12 12 -8
8 5 9 2 4 -12 -4 -10 -4 -15 0 -12 11 12 33 -16 23 -28 -7 -8 -4 -11 8 -10 10
0 21 5 25 11 4 5 10 2 14 -8 3 -9 12 -17 20 -17 8 0 14 -5 14 -11 0 -5 5 -7
10 -4 6 3 10 -1 10 -9 0 -10 6 -13 15 -10 9 4 15 0 15 -9 0 -9 4 -19 10 -22 6
-4 7 1 3 12 -3 10 -3 15 1 11 4 -4 9 -20 10 -36 2 -23 -2 -29 -14 -25 -10 3
-10 1 3 -7 13 -9 21 -8 33 4 8 9 21 16 27 16 7 0 6 -4 -3 -10 -14 -9 -12 -11
20 -14 8 0 14 -7 12 -14 -1 -8 2 -11 7 -8 5 4 16 -1 24 -9 9 -8 21 -15 27 -15
6 0 8 -4 5 -10 -3 -5 0 -10 8 -10 8 0 18 -7 21 -16 3 -8 2 -13 -2 -10 -5 3 -9
-1 -9 -9 0 -10 9 -13 29 -11 15 2 28 -1 28 -6 0 -5 8 -8 17 -6 10 2 18 -3 18
-12 1 -8 6 -14 13 -12 7 1 12 -2 12 -8 0 -5 7 -10 16 -10 8 0 13 -4 10 -8 -3
-5 6 -15 20 -22 18 -10 21 -16 12 -23 -9 -6 -6 -7 10 -4 14 3 20 1 15 -6 -4
-6 2 -8 16 -4 18 4 20 3 10 -9 -10 -12 -9 -13 5 -8 9 3 16 1 16 -5 0 -6 7 -11
16 -11 8 0 12 -4 9 -10 -3 -5 0 -10 7 -10 7 0 21 -12 31 -25 17 -24 17 -24 0
-19 -16 5 -16 4 1 -10 11 -9 26 -16 33 -16 7 0 13 -8 13 -17 0 -15 2 -16 10
-3 8 13 10 13 10 -2 0 -9 9 -20 20 -23 11 -4 18 -10 15 -15 -3 -5 4 -15 16
-24 13 -9 18 -19 14 -27 -5 -7 -4 -10 1 -6 14 8 37 -8 40 -28 1 -10 -6 -19
-17 -22 -10 -3 -19 -10 -19 -15 0 -5 -4 -6 -10 -3 -5 3 -10 -2 -10 -11 0 -10
-2 -15 -5 -12 -3 3 -24 -12 -46 -33 -23 -22 -46 -36 -51 -33 -6 4 -8 3 -5 -3
3 -5 -3 -15 -13 -23 -10 -8 -17 -17 -14 -22 3 -4 -3 -5 -13 -1 -10 3 -15 3
-11 -2 9 -10 -10 -35 -26 -35 -6 0 -4 4 4 10 8 5 12 12 8 15 -3 3 -20 -8 -37
-25 -17 -17 -31 -28 -31 -23 0 4 -5 0 -11 -11 -9 -15 -13 -16 -20 -5 -7 11 -9
10 -9 -5 0 -12 -5 -16 -15 -12 -9 3 -15 0 -15 -9 0 -8 -6 -16 -12 -17 -7 0
-18 -2 -24 -2 -15 -2 -44 -32 -37 -39 3 -4 -4 -4 -16 -2 -12 2 -19 0 -16 -4 2
-5 -7 -17 -21 -26 -18 -12 -24 -13 -19 -4 4 8 -2 4 -12 -9 -10 -13 -28 -24
-40 -25 -12 0 -19 -5 -17 -9 3 -5 11 -5 17 -2 7 4 8 3 4 -2 -5 -5 -14 -9 -20
-9 -7 -1 -11 -7 -9 -15 3 -11 0 -11 -12 0 -16 12 -22 4 -17 -23 1 -5 -3 -6 -9
-2 -5 3 -13 -1 -16 -9 -3 -9 -10 -13 -15 -10 -5 3 -9 -1 -9 -9 0 -8 -7 -18
-16 -21 -8 -3 -12 -10 -9 -16 3 -6 -3 -10 -15 -10 -16 0 -20 -4 -16 -16 3 -8
2 -12 -4 -9 -6 3 -10 0 -10 -7 0 -9 -3 -9 -10 2 -5 8 -10 11 -10 6 0 -5 -8 -2
-17 5 -14 12 -15 12 -9 1 7 -11 4 -12 -11 -3 -11 6 -23 7 -27 4 -3 -3 -6 -2
-6 4 0 6 -17 14 -37 18 -47 9 -75 23 -68 35 3 6 0 7 -8 4 -8 -3 -18 -1 -22 5
-3 6 -12 11 -18 11 -7 0 -6 -4 3 -10 17 -11 10 -13 -14 -4 -9 3 -13 10 -10 15
3 5 -2 6 -10 3 -11 -4 -16 0 -17 12 0 11 -3 14 -6 7 -2 -7 -9 -13 -14 -13 -6
0 -7 4 -4 10 3 6 -1 7 -9 4 -9 -3 -16 -1 -16 5 0 6 -3 10 -7 10 -23 -4 -43 2
-38 11 4 6 3 10 -2 9 -4 -1 -21 -1 -38 0 -24 1 -27 3 -15 12 12 9 11 10 -7 6
-13 -3 -23 -1 -23 4 0 4 -7 5 -17 2 -10 -4 -14 -2 -9 5 3 6 2 13 -4 17 -5 3
-10 1 -10 -6 0 -7 -12 -2 -27 12 -17 15 -22 17 -13 5 14 -18 14 -19 -10 -6
-14 7 -28 18 -32 24 -5 7 -8 6 -8 -3 0 -11 -3 -11 -17 0 -9 8 -14 9 -10 3 4
-6 -2 -10 -16 -8 -12 1 -22 3 -22 4 0 2 -10 4 -23 5 -16 2 -21 -2 -18 -11 3
-8 0 -11 -9 -7 -8 3 -12 10 -9 15 4 6 -2 5 -14 -1 -12 -6 -24 -16 -27 -21 -4
-6 -16 -8 -28 -4 -12 3 -18 3 -14 -2 4 -4 -3 -14 -15 -22 -14 -8 -16 -11 -5
-8 10 3 16 2 12 -3 -3 -5 6 -18 20 -29 14 -11 25 -25 25 -31 0 -6 9 -11 20
-11 11 0 20 -4 20 -9 0 -14 92 -81 103 -74 5 3 8 2 5 -3 -3 -5 0 -15 8 -22 8
-7 14 -9 14 -5 0 4 5 0 11 -9 5 -10 16 -18 24 -18 8 0 22 -11 31 -25 9 -14 28
-31 43 -38 14 -7 25 -19 23 -27 -3 -11 0 -11 14 1 16 12 17 12 11 -5 -5 -13
-3 -17 6 -13 7 3 19 -4 25 -14 7 -10 19 -19 27 -19 8 0 15 -7 15 -16 0 -8 5
-12 10 -9 6 3 10 1 10 -4 0 -6 6 -11 14 -11 8 0 17 -4 20 -8 7 -12 -5 -53 -14
-47 -4 3 -7 -3 -6 -13 0 -9 -5 -16 -12 -14 -6 1 -11 -1 -11 -5 1 -5 0 -10 -1
-13 -5 -15 -8 -41 -3 -36 3 3 12 -2 20 -12 8 -9 12 -12 9 -6 -3 7 7 11 26 12
17 0 34 6 39 13 5 9 11 9 23 -3 8 -9 12 -19 8 -23 -4 -5 2 -5 12 -1 19 7 19 6
2 -13 -13 -14 -14 -21 -5 -27 8 -5 10 -3 4 6 -5 8 -4 11 2 7 5 -3 9 -16 8 -29
-1 -13 2 -29 8 -35 6 -9 6 -13 -2 -13 -6 0 -11 -5 -11 -11 0 -5 5 -7 10 -4 6
3 10 4 10 1 0 -2 3 -12 7 -22 5 -12 3 -15 -6 -9 -7 4 -5 -5 5 -21 14 -20 15
-29 6 -32 -7 -2 -10 -7 -7 -12 6 -10 -15 -8 -34 4 -10 7 -12 6 -6 -4 6 -10 3
-12 -13 -8 -12 4 -22 2 -22 -3 0 -4 -7 -6 -15 -3 -8 4 -15 2 -15 -4 0 -7 -30
-10 -49 -3 -2 0 4 12 13 25 12 18 12 26 3 29 -9 4 -9 8 2 15 10 7 10 11 1 17
-9 6 -9 10 1 16 12 7 11 9 0 9 -11 0 -10 4 5 16 10 8 13 13 7 9 -9 -4 -13 2
-13 17 0 18 -2 20 -10 8 -9 -13 -10 -13 -10 0 0 13 -1 13 -10 0 -8 -12 -10
-12 -10 -1 0 11 -3 11 -15 1 -12 -10 -16 -9 -21 5 -5 13 -9 14 -15 4 -6 -10
-13 -10 -31 -2 -13 5 -31 9 -41 7 -11 -1 -17 0 -14 3 8 8 -35 53 -50 53 -8 0
-11 5 -8 11 4 6 -2 5 -14 -3 -17 -10 -25 -10 -41 -1 -13 9 -21 9 -25 2 -4 -5
-12 -8 -18 -6 -13 4 -66 -45 -59 -56 2 -5 -4 -4 -15 2 -14 7 -23 7 -31 -1 -9
-9 -12 -9 -12 0 0 10 -5 10 -22 1 -17 -9 -23 -9 -26 0 -3 9 -7 9 -19 0 -12
-10 -16 -10 -23 1 -7 11 -11 11 -24 1 -13 -11 -16 -11 -16 0 0 12 -2 12 -9 0
-5 -8 -16 -11 -26 -8 -9 4 -14 3 -11 -2 3 -5 -3 -11 -14 -14 -11 -3 -23 -1
-26 4 -3 6 -12 5 -22 -3 -13 -11 -14 -11 -7 1 6 11 4 13 -8 8 -10 -4 -17 -2
-17 5 0 6 -13 24 -30 40 -16 15 -30 36 -30 46 0 12 -3 14 -8 4 -6 -9 -12 -5
-22 13 -7 14 -17 25 -22 25 -4 0 -8 7 -8 15 0 8 -7 15 -16 15 -8 0 -13 4 -10
9 3 5 -1 12 -10 15 -9 3 -12 11 -8 18 4 7 4 10 -1 6 -9 -8 -35 15 -35 31 0 6
-4 11 -10 11 -5 0 -10 5 -10 11 0 6 -7 17 -15 25 -10 11 -12 21 -5 39 5 14 5
27 0 30 -5 3 -5 18 0 35 5 19 5 28 -1 25 -5 -4 -9 -1 -9 4 0 6 6 11 13 11 8 0
7 4 -3 10 -11 7 -11 10 -2 10 7 0 10 5 7 10 -9 15 4 50 18 47 7 -1 11 4 9 11
-1 6 3 12 9 12 5 0 7 5 4 10 -3 6 -1 10 6 10 8 0 7 5 -2 17 -8 9 -9 14 -3 10
7 -4 14 1 16 11 4 15 0 18 -23 17 -15 -1 -26 2 -23 7 3 4 -2 8 -11 8 -9 0 -13
5 -10 10 3 6 0 10 -7 11 -10 0 -10 2 -1 6 10 3 9 9 -3 20 -10 11 -12 18 -5 23
6 3 18 15 27 26 8 10 12 13 8 5 -5 -10 -3 -12 5 -7 7 5 10 15 7 23 -3 8 -2 12
3 8 12 -7 42 5 36 15 -7 11 24 22 37 13 6 -3 8 -2 5 4 -5 9 31 48 43 46 11 -2
39 24 33 31 -4 4 1 4 12 0 11 -4 17 -3 13 1 -10 11 29 38 42 30 6 -3 10 3 10
14 0 10 6 22 13 24 8 4 8 8 2 14 -13 10 -19 47 -7 39 5 -3 9 1 9 9 0 8 -6 16
-13 19 -20 8 15 65 43 72 13 4 21 9 19 13 -3 4 5 8 16 8 12 1 25 8 29 15 5 7
9 9 9 3 0 -5 4 -4 9 4 11 16 51 23 51 8 0 -5 7 -4 15 3 12 10 15 10 15 0 0 -9
4 -9 17 1 15 12 16 12 8 -1 -8 -13 -7 -13 8 -1 14 11 17 11 18 0 0 -12 1 -12
6 0 4 10 7 10 13 1 5 -9 13 -9 27 -2 15 8 23 8 32 -1 10 -9 12 -9 9 3 -2 8 3
14 10 15 7 0 16 5 20 11 4 6 15 10 25 8 9 -1 15 2 11 7 -5 9 41 13 116 10 26
0 31 2 20 9 -8 5 -10 10 -4 10 5 0 15 -5 22 -12 7 -7 12 -8 12 -2 0 5 9 10 20
11 11 1 20 -2 20 -8 0 -5 5 -9 11 -9 5 0 8 4 4 9 -3 5 14 9 39 8 42 -1 54 -12
31 -29 -6 -5 -5 -8 3 -8 9 0 10 -5 2 -19 -7 -14 -7 -22 0 -26 8 -5 7 -11 -1
-21 -9 -11 -8 -14 2 -15 10 0 10 -2 2 -6 -10 -3 -10 -7 0 -18 7 -7 15 -11 20
-8 4 2 7 0 7 -5 0 -5 11 -8 25 -7 14 2 25 -2 25 -8 0 -8 3 -7 9 1 7 11 9 11
14 -1 4 -10 13 -13 26 -10 13 3 21 1 21 -7 0 -7 7 -10 15 -7 8 4 17 2 20 -2 3
-5 14 -7 25 -4 11 3 20 0 20 -6 0 -6 7 -11 15 -11 8 0 15 -5 15 -11 0 -6 7 -8
16 -5 12 5 15 2 10 -10 -5 -14 -4 -15 9 -4 8 7 20 10 27 7 10 -3 12 8 11 40
-2 49 12 62 47 43 13 -7 20 -8 16 -2 -3 5 3 12 14 15 11 3 20 0 20 -6 0 -7 5
-5 10 3 6 9 10 10 10 3 0 -6 9 -10 20 -8 11 2 18 0 15 -6 -4 -5 -2 -9 3 -9 5
0 26 -17 48 -37 21 -21 34 -31 29 -23 -5 8 4 5 19 -7 22 -18 32 -20 47 -12 10
5 19 6 19 2 0 -4 5 -1 10 7 7 11 10 11 10 2 0 -7 5 -10 11 -6 6 3 15 0 20 -7
7 -11 9 -9 9 6 0 11 4 16 8 10 9 -12 92 -14 92 -2 0 4 4 6 9 3 5 -3 9 6 9 20
0 14 -6 28 -14 31 -7 2 -10 11 -8 18 3 7 0 16 -5 20 -6 3 -9 11 -6 16 4 5 -1
9 -9 9 -9 0 -16 5 -16 11 0 5 5 7 11 3 8 -4 8 0 0 15 -7 11 -8 21 -4 21 4 0 0
5 -10 11 -14 8 -16 14 -6 25 10 12 9 13 -6 8 -12 -5 -16 -4 -11 4 4 7 -1 10
-14 9 -11 -1 -20 -6 -20 -11 0 -5 -7 -1 -16 10 -8 10 -13 13 -9 7 4 -9 -1 -13
-15 -13 -13 0 -18 4 -15 11 4 6 -2 5 -13 -2 -18 -11 -24 -10 -40 9 -10 12 -22
19 -26 15 -3 -3 -6 -1 -6 6 0 7 -7 20 -16 28 -8 9 -13 24 -11 35 3 11 1 16 -6
11 -6 -4 -8 0 -4 9 3 9 0 21 -6 28 -8 9 -8 11 -1 7 7 -4 12 2 12 16 0 16 -6
23 -19 23 -11 0 -19 -4 -19 -9 0 -4 -4 -5 -10 -2 -5 3 -10 -2 -10 -12 0 -11
-3 -14 -8 -7 -10 16 -30 -6 -26 -29 1 -9 -2 -17 -6 -17 -5 0 -9 -8 -9 -17 -1
-47 -8 -68 -21 -65 -8 2 -16 8 -18 13 -2 5 -11 9 -20 9 -8 0 -12 3 -9 6 4 4
-6 18 -21 30 -30 26 -34 41 -18 63 8 11 8 13 -1 7 -7 -4 -13 -3 -13 1 0 5 6
15 13 22 10 11 9 12 -1 6 -9 -4 -12 -2 -11 6 5 21 -24 59 -43 59 -10 0 -17 3
-17 8 3 16 -1 32 -8 31 -20 -3 -34 2 -29 10 3 5 -4 11 -15 14 -14 4 -18 10
-13 18 5 8 2 11 -8 6 -9 -3 -21 0 -28 6 -10 9 -11 9 -6 0 5 -9 -2 -13 -24 -13
-20 0 -29 4 -24 11 5 8 1 8 -14 0 -22 -11 -37 -52 -18 -48 6 1 10 -6 10 -15
-1 -10 2 -18 7 -18 5 0 9 -5 9 -11 0 -12 25 -39 37 -40 4 -1 7 -6 5 -11 -2 -6
4 -8 13 -4 9 3 18 -1 21 -9 4 -8 10 -15 16 -15 5 0 6 6 2 13 -5 8 -3 8 9 -2 9
-7 14 -18 10 -25 -3 -6 -3 -8 2 -4 4 4 16 3 25 -2 15 -8 16 -14 7 -34 -7 -13
-15 -22 -19 -20 -4 3 -5 -2 -2 -10 3 -9 10 -13 15 -10 16 10 -4 -31 -24 -48
-24 -21 -31 -23 -21 -5 4 6 -1 4 -12 -5 -19 -17 -21 -17 -38 0 -11 9 -15 11
-11 4 6 -11 3 -12 -14 -3 -25 14 -30 46 -5 37 8 -3 13 -2 10 3 -3 5 1 11 9 14
9 4 12 1 8 -9 -7 -18 28 -7 40 13 5 7 12 11 18 8 5 -3 6 1 3 9 -3 9 -12 16
-20 16 -8 0 -14 4 -14 9 0 5 -13 14 -30 21 -16 7 -27 16 -24 21 3 5 -4 9 -16
9 -14 0 -19 4 -14 12 5 8 2 9 -9 5 -11 -4 -17 -1 -17 8 0 13 -4 16 -25 15 -12
-1 -47 39 -41 48 3 5 0 17 -8 27 -12 16 -14 16 -39 -7 -15 -14 -27 -31 -27
-38 0 -10 -3 -10 -16 0 -12 11 -15 11 -12 0 2 -7 -3 -15 -11 -18 -9 -3 -11 0
-6 8 6 9 3 9 -15 0 -12 -7 -20 -8 -17 -3 4 6 -7 10 -23 11 -16 0 -29 -3 -27
-6 1 -4 -8 -18 -20 -31 -12 -13 -20 -29 -16 -34 3 -6 1 -7 -4 -4 -11 7 -28
-20 -24 -36 1 -5 -3 -6 -8 -3 -5 4 -17 -9 -27 -29 -9 -19 -20 -35 -24 -35 -4
0 -11 -7 -14 -16 -4 -10 -2 -13 7 -9 6 4 2 -2 -10 -13 -12 -11 -19 -23 -15
-28 4 -5 0 -3 -10 4 -12 10 -18 10 -23 1 -6 -8 -10 -7 -16 2 -6 10 -9 11 -9 2
0 -7 -5 -13 -11 -13 -5 0 -7 6 -3 13 5 8 2 8 -9 -2 -13 -10 -17 -10 -17 -1 0
10 -3 10 -15 0 -12 -10 -15 -10 -15 1 0 11 -2 11 -9 0 -8 -12 -12 -12 -24 -2
-12 9 -16 9 -20 -1 -3 -10 -10 -8 -26 6 -11 11 -21 16 -21 12 0 -8 -16 7 -40
38 -13 18 -13 19 0 11 12 -6 13 -5 3 5 -10 10 -10 17 -1 27 6 8 7 13 2 12 -21
-4 -28 2 -14 11 12 8 12 10 1 10 -10 0 -11 3 -2 14 9 11 9 16 0 22 -8 5 -9 3
-4 -6 5 -9 4 -11 -3 -6 -9 5 -8 13 3 30 8 12 12 26 8 31 -5 4 -2 5 5 1 9 -6
12 -2 10 10 -2 10 3 19 10 20 6 1 13 2 15 4 1 1 13 3 27 5 14 2 40 6 59 10 26
5 31 4 25 -7 -6 -10 -4 -10 9 1 12 9 17 10 17 2 0 -7 5 -9 10 -6 6 4 18 1 27
-7 12 -9 15 -9 9 0 -4 6 -3 12 2 12 6 0 12 -7 16 -15 3 -8 12 -12 21 -9 8 3
12 11 8 17 -4 7 0 8 13 3 15 -6 16 -5 7 5 -10 10 -9 15 5 26 16 12 15 12 -3 6
-17 -6 -18 -5 -7 9 11 14 10 17 -10 24 -13 4 -26 7 -30 6 -12 -3 -9 26 2 33 8
5 7 12 -2 23 -11 13 -11 14 1 7 11 -6 13 -4 8 7 -3 9 0 21 6 28 9 10 9 11 -3
5 -11 -6 -12 -5 -5 3 6 6 19 13 30 15 11 1 25 5 30 8 6 2 24 4 40 4 31 0 90
50 79 67 -3 4 3 8 12 8 10 0 14 3 11 7 -4 3 1 12 11 20 11 10 12 12 2 8 -8 -4
-4 3 10 14 25 21 31 23 73 24 12 1 25 6 30 11 5 8 10 6 16 -3 5 -8 14 -10 21
-6 7 4 16 2 21 -6 5 -8 9 -9 9 -4 0 6 16 10 38 8 20 -2 32 0 25 3 -7 3 -9 13
-6 22 4 10 8 12 11 4 2 -7 8 -10 12 -7z m1260 -199 c0 -3 -4 -8 -10 -11 -5 -3
-10 -1 -10 4 0 6 5 11 10 11 6 0 10 -2 10 -4z m-3246 -82 c3 -9 11 -12 18 -8
9 5 8 2 -1 -9 -8 -10 -16 -15 -18 -13 -7 7 -43 -27 -43 -41 0 -6 -5 -15 -12
-19 -7 -4 -8 -3 -4 4 4 7 2 12 -3 12 -6 0 -11 -4 -11 -9 0 -5 -9 -7 -20 -4
-11 3 -18 9 -15 13 3 5 -4 12 -16 15 -21 7 -21 7 2 19 14 7 27 8 30 3 4 -5 10
-4 14 3 6 9 10 9 16 -1 7 -12 9 -12 9 0 0 14 29 49 41 50 4 1 10 -6 13 -15z
m-198 -55 c-6 9 -4 12 5 9 20 -7 18 -31 -4 -46 -26 -20 -51 1 -34 28 9 15 14
17 26 7 12 -10 13 -9 7 2z m3994 -9 c0 -5 -5 -10 -11 -10 -5 0 -7 5 -4 10 3 6
8 10 11 10 2 0 4 -4 4 -10z m-1916 -16 c3 -8 2 -12 -4 -9 -6 3 -10 10 -10 16
0 14 7 11 14 -7z m656 -498 c0 -3 -4 -8 -10 -11 -5 -3 -10 -1 -10 4 0 6 5 11
10 11 6 0 10 -2 10 -4z m-960 -486 c0 -5 -2 -10 -4 -10 -3 0 -8 5 -11 10 -3 6
-1 10 4 10 6 0 11 -4 11 -10z m-956 -981 c-2 -4 2 -10 8 -12 7 -3 3 -6 -10 -6
-14 -1 -22 -6 -19 -13 2 -7 -8 -24 -22 -37 -14 -14 -26 -27 -26 -30 -1 -9 -55
-65 -55 -56 0 4 -8 1 -17 -6 -15 -12 -16 -12 -8 1 5 9 -1 7 -15 -5 -13 -11
-20 -15 -17 -8 5 8 1 8 -18 0 -14 -7 -25 -15 -25 -19 0 -5 -5 -8 -11 -8 -5 0
-7 6 -4 13 4 6 1 5 -7 -4 -18 -21 -48 -31 -48 -16 0 7 -4 6 -10 -3 -5 -8 -14
-16 -20 -16 -5 -1 -11 -2 -12 -3 -2 -2 -14 -4 -27 -7 -14 -2 -31 -10 -40 -17
-12 -10 -13 -9 -7 3 6 13 6 13 -6 0 -7 -9 -25 -15 -40 -15 -23 1 -25 -2 -15
-14 10 -12 9 -13 -12 -2 -13 7 -21 9 -17 3 9 -14 -19 -23 -32 -10 -8 8 -13 7
-17 -4 -4 -10 -14 -14 -26 -11 -11 3 -21 -1 -25 -11 -3 -9 -10 -16 -16 -16 -5
0 -6 6 -2 13 4 6 -3 3 -16 -8 -13 -11 -21 -15 -17 -9 3 6 0 11 -8 11 -8 0 -12
-4 -9 -8 2 -4 0 -10 -5 -13 -5 -4 -13 -2 -16 4 -5 8 -11 8 -20 0 -8 -7 -20 -8
-27 -4 -10 6 -11 5 -1 -7 11 -13 8 -15 -17 -11 -17 2 -30 0 -30 -6 0 -6 -9
-11 -20 -11 -11 -1 -29 -1 -40 -2 -11 0 -20 -5 -20 -10 0 -6 -4 -7 -10 -4 -5
3 -10 1 -10 -4 0 -6 -5 -11 -11 -11 -5 0 -7 5 -4 10 3 6 1 10 -4 10 -6 0 -11
-4 -11 -9 0 -5 -13 -8 -30 -7 -25 2 -27 0 -17 -13 10 -12 9 -13 -1 -7 -7 4
-19 3 -27 -4 -9 -8 -15 -8 -20 0 -5 8 -11 7 -22 -1 -12 -10 -16 -10 -24 2 -7
11 -9 10 -10 -6 0 -12 -3 -15 -6 -7 -4 10 -8 9 -19 -5 -8 -11 -13 -13 -14 -5
0 8 -8 6 -22 -8 -15 -13 -25 -17 -32 -10 -12 12 -29 13 -22 2 8 -14 -33 -7
-47 8 -9 10 -9 11 1 6 15 -9 16 10 1 20 -8 4 -7 9 2 15 12 8 11 11 -1 19 -9 6
-10 10 -3 10 6 0 15 9 18 21 5 16 10 18 21 8 11 -9 14 -9 14 1 0 8 3 10 7 7 3
-4 13 -1 21 6 9 6 13 7 9 1 -3 -6 0 -11 8 -11 8 0 12 4 9 9 -3 4 4 8 16 8 12
0 31 5 42 11 15 8 19 8 13 0 -3 -6 10 -2 31 9 32 18 36 19 30 4 -5 -13 -4 -14
7 -6 8 7 18 8 22 4 5 -4 5 -1 1 6 -5 9 3 12 29 12 20 0 34 4 31 9 -4 5 5 8 19
6 14 -1 25 2 25 7 0 5 5 6 10 3 6 -4 18 -1 27 7 14 11 16 11 9 -2 -4 -9 -2 -8
7 2 8 10 17 15 20 11 4 -3 14 0 24 8 11 9 14 10 9 2 -5 -9 -2 -11 8 -7 9 3 16
11 16 18 0 6 5 4 10 -4 7 -11 10 -11 10 -2 0 7 4 11 9 7 5 -3 13 0 17 6 4 8 9
7 15 -2 7 -11 9 -9 9 6 0 17 2 17 10 5 8 -12 10 -12 10 5 0 15 2 17 9 6 6 -10
10 -10 16 -1 4 6 13 9 21 6 8 -3 14 -1 14 5 0 6 5 7 10 4 6 -3 10 -1 10 6 0 7
3 10 6 6 4 -3 21 1 38 10 30 16 31 16 16 -3 -14 -19 -14 -19 7 0 12 10 29 16
37 13 9 -4 19 0 24 8 4 8 24 16 45 17 20 2 37 8 37 15 0 6 5 15 12 19 6 4 8 3
5 -3 -8 -13 33 -9 41 4 4 5 15 9 25 7 12 -1 17 2 13 11 -3 9 0 12 10 8 8 -3
22 1 31 8 14 12 16 12 8 -1 -6 -11 -3 -10 11 2 16 14 23 15 34 5 9 -8 11 -8 6
0 -6 11 29 30 47 25 4 -1 7 3 7 9 0 5 5 7 10 4 6 -3 10 -2 10 4 0 6 7 8 15 5
8 -3 17 0 20 8 3 7 14 14 25 14 10 0 17 -3 14 -7z m-113 -226 c-11 -5 -11 -7
0 -14 9 -6 10 -12 4 -16 -14 -11 -15 -43 -1 -43 6 0 4 -5 -4 -10 -8 -5 -11
-10 -6 -10 5 0 2 -8 -5 -17 -8 -10 -9 -14 -2 -10 6 4 14 3 18 -3 3 -5 2 -10
-3 -10 -13 0 -22 -39 -11 -46 5 -3 6 -11 2 -17 -8 -12 -9 -17 -12 -37 0 -5 -8
-6 -18 -3 -11 4 -14 3 -9 -5 4 -7 2 -12 -4 -12 -6 0 -8 -5 -4 -12 4 -6 3 -8
-4 -4 -6 3 -18 -4 -26 -16 -9 -12 -16 -19 -16 -14 0 5 -7 3 -15 -4 -12 -10
-15 -10 -15 1 0 8 -5 6 -13 -6 -10 -13 -16 -15 -21 -6 -4 6 -12 9 -17 6 -5 -4
-9 0 -9 7 0 10 -3 9 -9 -1 -8 -13 -12 -13 -27 0 -11 9 -15 9 -10 2 4 -8 1 -13
-9 -13 -10 0 -14 5 -10 13 4 6 -1 3 -10 -8 -9 -11 -20 -19 -25 -18 -5 2 -7 -6
-5 -17 2 -12 0 -18 -6 -15 -5 4 -9 -1 -9 -9 0 -9 -5 -16 -11 -16 -5 0 -7 -5
-4 -10 8 -13 18 -60 17 -83 0 -9 3 -15 7 -13 4 3 7 -7 6 -22 0 -15 7 -30 15
-34 12 -5 12 -7 -2 -7 -10 -1 -18 -8 -18 -16 0 -8 -9 -24 -20 -35 -11 -11 -17
-20 -12 -20 4 0 -1 -5 -11 -11 -9 -6 -15 -14 -12 -19 3 -5 -4 -11 -15 -15 -11
-4 -18 -10 -15 -15 3 -4 -2 -11 -11 -14 -8 -3 -13 -10 -10 -15 3 -5 -1 -11 -9
-15 -8 -3 -15 -12 -15 -20 0 -7 -7 -17 -16 -20 -9 -4 -14 -13 -10 -22 3 -8 2
-12 -4 -9 -6 3 -10 -1 -10 -9 0 -9 -4 -16 -10 -16 -5 0 -10 -9 -10 -20 0 -11
-7 -20 -15 -20 -8 0 -15 -4 -15 -10 0 -5 -7 -10 -15 -10 -8 0 -15 -5 -15 -11
0 -5 -4 -8 -9 -4 -5 3 -12 1 -16 -4 -3 -6 -13 -7 -22 -4 -11 4 -14 3 -9 -5 6
-11 -5 -17 -26 -13 -5 0 -8 -4 -8 -11 0 -6 -3 -8 -7 -5 -3 4 -17 0 -31 -9 -13
-9 -21 -11 -18 -5 4 6 0 11 -9 11 -9 0 -14 -4 -11 -9 3 -4 -6 -7 -19 -5 -17 1
-29 -4 -35 -17 -9 -16 -6 -21 14 -31 14 -6 23 -15 20 -19 -3 -5 1 -7 8 -4 7 3
20 0 28 -5 13 -9 13 -12 -2 -24 -10 -7 -18 -20 -18 -29 0 -11 -5 -14 -17 -10
-11 4 -14 3 -9 -5 4 -7 2 -12 -4 -12 -6 0 -9 -4 -6 -9 4 -5 1 -11 -6 -13 -7
-3 -3 -13 12 -28 27 -27 49 -34 66 -19 7 6 15 5 21 -3 13 -18 17 -72 5 -64 -6
4 -8 -3 -4 -16 3 -14 1 -19 -6 -14 -8 5 -10 2 -6 -9 4 -9 -2 -25 -12 -36 -17
-19 -17 -20 2 -13 15 6 17 5 8 -7 -8 -11 -6 -18 8 -31 10 -10 18 -15 18 -10 0
4 11 -5 24 -20 13 -16 29 -28 36 -28 7 0 10 -7 6 -16 -3 -8 -2 -12 4 -9 6 3
10 -1 10 -9 0 -9 -6 -16 -12 -16 -9 0 -8 -4 2 -11 12 -8 8 -9 -15 -7 -17 1
-36 -1 -43 -5 -6 -5 -12 -4 -12 2 0 6 -5 11 -11 11 -5 0 -8 -4 -5 -9 3 -4 -7
-6 -22 -4 -15 2 -35 4 -45 4 -9 0 -15 4 -12 10 4 5 -2 12 -12 16 -10 3 -30 19
-45 35 -15 15 -30 28 -33 28 -11 0 -35 28 -35 41 0 7 -3 10 -6 6 -10 -9 -35
20 -37 42 0 11 -5 17 -9 15 -4 -3 -8 2 -8 10 0 9 -5 16 -11 16 -5 0 -8 4 -4 9
3 5 -2 16 -10 24 -8 9 -15 20 -15 26 0 6 -5 11 -11 11 -5 0 -7 5 -4 10 3 6 1
10 -5 10 -6 0 -9 4 -5 9 3 5 -2 16 -10 25 -10 9 -11 17 -5 21 6 4 7 11 3 18
-9 15 -10 57 -1 51 5 -3 6 5 4 18 -2 13 2 29 8 37 8 11 8 13 -1 7 -7 -4 -13
-2 -13 3 0 6 5 11 11 11 8 0 8 5 -1 15 -10 12 -10 15 1 16 10 0 11 2 1 6 -6 2
-10 8 -7 13 3 5 -2 16 -11 24 -8 9 -13 16 -10 16 3 0 -6 12 -19 26 -14 15 -25
31 -25 36 0 5 -4 7 -8 4 -8 -4 -9 65 -2 72 1 1 3 6 4 11 0 5 4 13 8 17 4 4 3
13 -3 21 -6 7 -7 13 -2 13 5 0 9 16 8 35 0 19 3 35 7 35 3 0 6 9 5 19 -1 15
-4 17 -14 9 -12 -10 -17 -4 -14 14 0 4 -6 5 -14 2 -11 -5 -15 1 -15 21 0 16 4
24 11 19 6 -3 3 6 -7 22 -11 15 -14 25 -8 22 6 -4 10 9 10 37 -1 24 -5 41 -10
38 -5 -4 -6 0 -1 8 5 7 8 35 7 61 0 26 4 50 10 54 7 4 8 3 4 -4 -11 -19 5 -14
21 6 10 12 16 14 19 5 3 -7 10 -13 15 -13 6 0 7 4 4 10 -3 6 1 7 9 4 9 -4 16
-1 16 6 0 10 3 10 15 0 10 -9 15 -9 15 -1 0 6 5 11 11 11 5 0 7 -4 4 -10 -3
-6 1 -7 9 -4 9 3 13 11 10 16 -4 6 4 5 16 -2 18 -10 21 -9 15 1 -6 9 -2 11 13
7 12 -4 22 -3 22 2 0 4 11 6 25 5 14 -2 25 0 25 4 0 4 15 8 33 9 59 3 68 5 63
18 -5 12 1 12 44 2 8 -1 14 3 12 10 -2 10 2 11 15 4 11 -7 26 -4 50 9 20 11
31 14 27 7 -6 -9 -3 -9 9 1 9 7 24 11 32 7 9 -3 13 -2 10 4 -4 6 6 8 25 6 26
-3 29 -1 18 12 -12 13 -10 14 11 3 13 -7 21 -8 17 -3 -3 6 -2 13 4 17 5 3 10
1 10 -6 0 -8 6 -7 18 4 12 11 22 13 35 6 13 -8 17 -7 15 3 -2 7 5 12 15 12 9
-1 17 3 17 9 0 6 3 7 7 4 3 -4 13 -1 21 6 13 10 15 9 8 -3 -4 -8 -1 -7 8 4 9
12 23 17 36 13 11 -3 23 -1 26 4 3 5 10 7 15 3 5 -3 9 -2 8 3 -3 20 2 27 11
13 7 -11 10 -11 10 -2 0 7 5 10 10 7 6 -3 10 -2 10 3 0 6 7 13 16 16 9 4 13 2
8 -5 -3 -6 5 -4 18 5 14 9 28 13 31 9 4 -3 7 -1 7 6 0 7 5 9 10 6 6 -3 13 1
16 10 5 12 9 13 21 4 11 -10 13 -10 11 1 -2 8 2 14 9 15 6 0 15 3 19 8 4 4 12
7 18 6 6 0 5 -3 -3 -6z"/>
<path d="M6090 5760 c0 -5 5 -10 11 -10 5 0 7 5 4 10 -3 6 -8 10 -11 10 -2 0
-4 -4 -4 -10z"/>
<path d="M4160 4209 c0 -5 5 -7 10 -4 6 3 10 8 10 11 0 2 -4 4 -10 4 -5 0 -10
-5 -10 -11z"/>
<path d="M5221 8041 c-8 -5 -9 -11 -3 -15 5 -3 12 1 16 9 6 17 6 18 -13 6z"/>
</g>
</svg>
